<!-- Generator: Adobe Illustrator 19.2.1, SVG Export Plug-In  -->
<svg version="1.1"
	 xmlns="http://www.w3.org/2000/svg" xmlns:xlink="http://www.w3.org/1999/xlink" xmlns:a="http://ns.adobe.com/AdobeSVGViewerExtensions/3.0/"
	 x="0px" y="0px" width="177.607px" height="187.481px" viewBox="0 0 177.607 187.481"
	 style="enable-background:new 0 0 177.607 187.481;" xml:space="preserve">
<style type="text/css">
	.st0{fill:#E4DCCF;}
	.st1{fill:#754D38;}
	.st2{opacity:0.1;}
	.st3{fill:#FFFFFF;}
</style>
<defs>
</defs>
<g>
	<g>
		<rect x="5.982" y="100.603" class="st0" width="140.415" height="5.582"/>
		<g>
			<path class="st0" d="M74.899,0H0c0,0,0.33,53.634,20.662,73.966C37.103,90.407,64.09,91.981,73.82,91.981
				c0.971,0,1.77-0.016,2.369-0.034c0.6,0.018,1.399,0.034,2.37,0.034c9.729,0,36.716-1.572,53.159-18.014
				C152.05,53.634,152.38,0,152.38,0H77.481H74.899z M127.64,69.888C112.493,85.036,86.244,86.214,78.56,86.214
				c-0.899,0-1.64-0.014-2.195-0.031l-0.174-0.005l-0.174,0.005c-0.556,0.017-1.296,0.031-2.196,0.031
				c-7.684,0-33.933-1.177-49.081-16.325C10.047,55.196,6.724,19.746,5.979,5.767h68.919h2.583h68.954
				C145.56,23.079,141.206,56.323,127.64,69.888z"/>
			<rect x="53.394" y="89.174" class="st0" width="45.592" height="7.286"/>
			<path class="st0" d="M167.82,11.345c-8.299-5.295-18.462-1.928-18.891-1.783l1.851,5.462c0.079-0.028,8.031-2.614,13.968,1.201
				c3.858,2.479,6.188,7.24,6.927,14.152c1.326,12.405-5.302,18.279-9.371,20.675c-6.406,3.774-15.171,4.098-19.954,0.738
				l-3.315,4.718c3.233,2.271,7.467,3.4,11.937,3.4c4.8,0,9.871-1.302,14.26-3.888c8.959-5.278,13.397-14.848,12.178-26.257
				C176.473,21.005,173.246,14.808,167.82,11.345z"/>
		</g>
		<path class="st1" d="M24.74,69.888C39.888,85.036,66.136,86.214,73.82,86.214c0.9,0,1.64-0.014,2.196-0.031l0.174-0.005
			l0.174,0.005c0.555,0.017,1.296,0.031,2.195,0.031c7.684,0,33.933-1.177,49.081-16.325c6.351-6.351,10.682-17.015,13.584-28.339
			H11.08C13.89,52.628,18.179,63.328,24.74,69.888z"/>
		<path class="st2" d="M76.285,86.18l0.079,0.002c0.555,0.017,1.296,0.031,2.195,0.031c7.684,0,33.933-1.177,49.081-16.325
			c6.351-6.351,10.683-17.015,13.584-28.339H76.285V86.18z"/>
		<g>
			<g>
				<path class="st3" d="M31.241,132.011c0.198,0,0.39,0.025,0.575,0.074c0.186,0.05,0.353,0.118,0.5,0.204
					c0.148,0.087,0.266,0.188,0.353,0.306c0.086,0.118,0.129,0.238,0.129,0.361c0,0.198-0.124,0.399-0.371,0.602
					c-0.247,0.204-0.674,0.393-1.279,0.565c-0.606,0.174-1.412,0.316-2.419,0.427s-2.277,0.167-3.809,0.167
					c-0.828,0-1.65,0.114-2.465,0.343c-0.816,0.229-1.545,0.565-2.188,1.01c-0.643,0.445-1.165,0.989-1.566,1.632
					c-0.401,0.643-0.603,1.378-0.603,2.206c0,0.667,0.096,1.304,0.288,1.909c0.191,0.605,0.482,1.137,0.871,1.594
					c0.389,0.457,0.878,0.822,1.464,1.094c0.587,0.273,1.282,0.408,2.085,0.408c1.619,0,2.966-0.096,4.041-0.288
					c1.075-0.191,1.974-0.432,2.697-0.723c0.723-0.29,1.316-0.603,1.779-0.936c0.463-0.334,0.896-0.646,1.298-0.936
					c0.401-0.29,0.815-0.531,1.242-0.723c0.426-0.191,0.961-0.288,1.604-0.288c0.519,0,0.927,0.127,1.224,0.381
					c0.296,0.253,0.445,0.614,0.445,1.084c0,0.321-0.17,0.68-0.51,1.075c-0.34,0.395-0.822,0.8-1.446,1.214
					c-0.625,0.414-1.375,0.812-2.252,1.196c-0.877,0.383-1.854,0.726-2.929,1.028c-1.075,0.303-2.231,0.547-3.466,0.732
					c-1.236,0.186-2.521,0.278-3.856,0.278c-1.223,0-2.373-0.164-3.448-0.491c-1.075-0.328-2.014-0.819-2.817-1.475
					c-0.804-0.654-1.436-1.474-1.9-2.456c-0.464-0.982-0.695-2.134-0.695-3.457c0-1.137,0.259-2.171,0.778-3.104
					c0.519-0.933,1.227-1.752,2.123-2.456c0.896-0.704,1.94-1.285,3.133-1.742c1.192-0.457,2.462-0.772,3.809-0.945
					c-1.038-0.779-1.767-1.542-2.187-2.29c-0.42-0.747-0.63-1.485-0.63-2.215c0-0.717,0.179-1.381,0.538-1.993
					c0.358-0.611,0.85-1.17,1.474-1.677c0.624-0.507,1.35-0.955,2.178-1.345c0.828-0.389,1.717-0.716,2.669-0.982
					c0.952-0.266,1.938-0.469,2.957-0.611c1.02-0.142,2.023-0.213,3.012-0.213c1.013,0,1.974,0.105,2.882,0.314
					c0.908,0.211,1.721,0.538,2.438,0.982c0.717,0.445,1.304,1.008,1.761,1.688c0.457,0.68,0.735,1.482,0.834,2.409
					c0,0.26-0.062,0.525-0.186,0.798c-0.123,0.271-0.312,0.521-0.565,0.75c-0.253,0.229-0.562,0.414-0.927,0.557
					c-0.365,0.142-0.788,0.213-1.27,0.213c-0.26,0-0.467-0.03-0.621-0.093c-0.155-0.061-0.272-0.148-0.352-0.26
					c-0.081-0.11-0.13-0.243-0.148-0.398c-0.019-0.154-0.028-0.324-0.028-0.51c0-0.58-0.068-1.081-0.204-1.501
					c-0.136-0.42-0.361-0.763-0.676-1.029c-0.315-0.266-0.726-0.463-1.233-0.593s-1.137-0.194-1.891-0.194
					c-0.902,0-1.841,0.096-2.817,0.287c-0.977,0.191-1.873,0.47-2.688,0.834c-0.815,0.364-1.486,0.8-2.011,1.307
					c-0.525,0.507-0.788,1.075-0.788,1.706c0,0.741,0.17,1.378,0.51,1.909c0.34,0.531,0.791,0.967,1.353,1.307
					c0.562,0.34,1.208,0.587,1.937,0.741C29.709,131.933,30.463,132.011,31.241,132.011z"/>
				<path class="st3" d="M39.936,136.868c0.753,0.396,1.427,0.847,2.021,1.353c0.593,0.507,1.096,1.041,1.511,1.604
					c0.414,0.562,0.729,1.134,0.945,1.715c0.216,0.581,0.324,1.149,0.324,1.705c0,0.705-0.201,1.338-0.603,1.9
					c-0.401,0.562-0.927,1.038-1.576,1.427c-0.648,0.39-1.39,0.686-2.224,0.891c-0.834,0.203-1.678,0.306-2.53,0.306
					c-0.643,0-1.267-0.071-1.872-0.213c-0.606-0.143-1.159-0.362-1.659-0.658c-0.5-0.297-0.93-0.677-1.289-1.141
					c-0.358-0.463-0.611-1.016-0.76-1.659c-0.025-0.099-0.037-0.179-0.037-0.24c0-0.334,0.118-0.621,0.352-0.862
					c0.235-0.241,0.494-0.361,0.779-0.361c0.136,0,0.287,0.024,0.454,0.074c0.167,0.05,0.293,0.16,0.38,0.333
					c0.161,0.297,0.386,0.562,0.677,0.798c0.29,0.234,0.614,0.435,0.973,0.602c0.358,0.166,0.738,0.296,1.14,0.389
					c0.401,0.093,0.794,0.14,1.177,0.14c0.396,0,0.775-0.037,1.14-0.111c0.364-0.074,0.686-0.191,0.964-0.352
					c0.278-0.16,0.498-0.364,0.658-0.611c0.16-0.247,0.241-0.55,0.241-0.908c0-0.631-0.142-1.212-0.426-1.743
					c-0.284-0.531-0.652-1.023-1.103-1.474c-0.451-0.451-0.964-0.871-1.539-1.261c-0.575-0.389-1.146-0.763-1.714-1.121
					c-0.062-0.037-0.155-0.146-0.278-0.324c-0.124-0.179-0.185-0.361-0.185-0.547c0-0.148,0.037-0.266,0.111-0.352
					c0.198-0.259,0.427-0.524,0.686-0.797c0.26-0.271,0.538-0.521,0.834-0.751c0.297-0.229,0.618-0.414,0.964-0.556
					c0.346-0.142,0.704-0.213,1.075-0.213c0.272,0,0.525,0.037,0.76,0.11c0.234,0.074,0.432,0.171,0.593,0.288
					c0.16,0.117,0.287,0.247,0.38,0.389c0.093,0.143,0.139,0.275,0.139,0.398c0,0.174-0.043,0.341-0.13,0.501
					c-0.086,0.161-0.201,0.315-0.343,0.463c-0.143,0.148-0.303,0.297-0.482,0.445C40.284,136.59,40.108,136.731,39.936,136.868z"/>
				<path class="st3" d="M65.535,138.592c0.173-0.099,0.333-0.179,0.481-0.241c0.148-0.062,0.29-0.093,0.427-0.093
					c0.271,0,0.476,0.103,0.611,0.306c0.136,0.204,0.204,0.454,0.204,0.751c0,0.321-0.083,0.649-0.25,0.982
					c-0.167,0.334-0.417,0.612-0.751,0.834c-1.322,0.989-2.503,1.891-3.541,2.707c-1.038,0.815-2.018,1.517-2.938,2.103
					c-0.921,0.587-1.82,1.041-2.697,1.362c-0.878,0.321-1.816,0.482-2.817,0.482c-0.939,0-1.666-0.174-2.179-0.52
					c-0.513-0.346-0.768-0.821-0.768-1.427c0-0.05,0-0.096,0-0.14c0-0.043,0.006-0.096,0.018-0.157
					c0.049-0.371,0.24-0.797,0.574-1.279c0.334-0.482,0.735-0.982,1.205-1.501c0.47-0.52,0.97-1.044,1.501-1.576
					c0.531-0.531,1.023-1.034,1.475-1.511c0.45-0.476,0.824-0.911,1.121-1.307c0.297-0.396,0.444-0.717,0.444-0.964
					c0-0.148-0.062-0.266-0.185-0.353c-0.124-0.086-0.328-0.129-0.612-0.129c-0.494,0-1.004,0.107-1.529,0.324
					c-0.525,0.216-1.044,0.507-1.557,0.871c-0.513,0.364-1.014,0.781-1.502,1.251c-0.488,0.47-0.945,0.958-1.371,1.465
					c-0.427,0.507-0.816,1.017-1.168,1.529c-0.353,0.513-0.652,0.985-0.899,1.418c-0.074,0.136-0.179,0.327-0.314,0.574
					c-0.137,0.247-0.285,0.525-0.445,0.834c-0.161,0.31-0.331,0.628-0.51,0.955c-0.18,0.327-0.343,0.637-0.491,0.927
					c-0.148,0.29-0.281,0.55-0.398,0.778c-0.118,0.229-0.201,0.387-0.25,0.473c-0.062,0.111-0.164,0.321-0.307,0.631
					c-0.142,0.309-0.306,0.67-0.491,1.084c-0.185,0.414-0.38,0.85-0.584,1.307c-0.203,0.457-0.396,0.89-0.574,1.298
					c-0.18,0.408-0.337,0.766-0.473,1.075c-0.136,0.309-0.223,0.518-0.259,0.63c-0.124,0.321-0.269,0.624-0.436,0.908
					c-0.167,0.284-0.358,0.535-0.574,0.751c-0.216,0.216-0.464,0.39-0.742,0.52c-0.278,0.129-0.59,0.194-0.936,0.194
					c-0.445,0-0.812-0.09-1.103-0.269c-0.29-0.18-0.436-0.522-0.436-1.029c0-0.247,0.037-0.5,0.111-0.76
					c0.074-0.26,0.167-0.517,0.278-0.77c0.111-0.253,0.226-0.5,0.343-0.741c0.118-0.241,0.226-0.473,0.325-0.695
					c0.667-1.235,1.347-2.475,2.039-3.717c0.692-1.241,1.357-2.471,1.993-3.688c0.637-1.217,1.226-2.413,1.771-3.587
					c0.543-1.174,0.994-2.299,1.353-3.374c0.099-0.222,0.235-0.537,0.408-0.945c0.173-0.407,0.371-0.809,0.593-1.205
					c0.223-0.395,0.473-0.738,0.751-1.028c0.278-0.29,0.577-0.436,0.899-0.436c0.494,0,0.853,0.096,1.075,0.287
					c0.222,0.192,0.333,0.473,0.333,0.844c0,0.074-0.012,0.191-0.037,0.352c-0.024,0.161-0.056,0.331-0.093,0.51
					c-0.037,0.18-0.077,0.35-0.12,0.51c-0.043,0.161-0.083,0.278-0.12,0.353c0.457-0.42,0.951-0.837,1.482-1.251
					c0.531-0.414,1.081-0.788,1.65-1.122c0.567-0.333,1.148-0.604,1.742-0.815c0.593-0.21,1.187-0.314,1.779-0.314
					c0.408,0,0.812,0.049,1.214,0.148c0.401,0.1,0.761,0.244,1.075,0.436c0.316,0.191,0.571,0.433,0.77,0.723
					c0.197,0.29,0.297,0.627,0.297,1.01c0,0.507-0.151,1.048-0.454,1.622c-0.304,0.575-0.684,1.152-1.141,1.733
					c-0.457,0.581-0.951,1.146-1.482,1.696c-0.531,0.55-1.029,1.051-1.492,1.501c-0.464,0.451-0.853,0.834-1.168,1.149
					c-0.315,0.315-0.479,0.528-0.491,0.64c0,0.148,0.056,0.269,0.167,0.361c0.111,0.093,0.296,0.14,0.556,0.14
					c0.21,0,0.52-0.1,0.927-0.297c0.408-0.197,0.979-0.541,1.715-1.029c0.735-0.487,1.668-1.143,2.799-1.965
					C62.485,140.875,63.879,139.84,65.535,138.592z"/>
				<path class="st3" d="M70.559,136.497c0.481-0.297,0.979-0.568,1.492-0.815c0.513-0.247,1.01-0.461,1.492-0.64
					c0.481-0.179,0.942-0.321,1.381-0.427c0.438-0.104,0.831-0.157,1.177-0.157c0.557,0,0.985,0.133,1.288,0.398
					c0.303,0.266,0.454,0.714,0.454,1.344c0,0.137-0.006,0.281-0.019,0.436c-0.012,0.155-0.036,0.318-0.073,0.491
					c-0.062,0.322-0.248,0.698-0.557,1.131s-0.671,0.884-1.084,1.354c-0.414,0.47-0.859,0.942-1.335,1.418s-0.915,0.915-1.316,1.316
					c-0.401,0.401-0.735,0.75-1.001,1.047c-0.266,0.297-0.398,0.501-0.398,0.612c0,0.099,0.006,0.166,0.019,0.203
					c0.013,0.037,0.068,0.056,0.167,0.056c0.667-0.284,1.412-0.627,2.233-1.028c0.822-0.401,1.641-0.812,2.456-1.233
					c0.816-0.42,1.588-0.83,2.317-1.232c0.729-0.401,1.347-0.751,1.854-1.047c0.111-0.062,0.226-0.114,0.343-0.158
					c0.118-0.043,0.226-0.064,0.325-0.064c0.222,0,0.407,0.074,0.556,0.223c0.148,0.148,0.223,0.346,0.223,0.593
					c0,0.284-0.121,0.609-0.361,0.974c-0.241,0.364-0.646,0.744-1.215,1.14c-0.433,0.273-0.917,0.578-1.455,0.918
					c-0.537,0.34-1.1,0.692-1.687,1.057c-0.587,0.364-1.181,0.72-1.779,1.065c-0.6,0.346-1.178,0.655-1.733,0.927
					c-0.557,0.273-1.078,0.491-1.566,0.658c-0.488,0.167-0.911,0.25-1.27,0.25c-0.853,0-1.492-0.204-1.919-0.611
					c-0.426-0.408-0.64-0.933-0.64-1.576c0-0.099,0.007-0.173,0.019-0.222c0.087-0.544,0.247-1.069,0.482-1.576
					c0.234-0.507,0.5-0.988,0.797-1.445c0.297-0.457,0.605-0.893,0.927-1.308c0.321-0.413,0.614-0.803,0.881-1.167
					c0.266-0.365,0.484-0.701,0.658-1.011c0.173-0.309,0.259-0.593,0.259-0.852c0-0.062-0.012-0.123-0.037-0.186
					c-0.024-0.061-0.08-0.093-0.166-0.093c-0.148,0-0.393,0.056-0.732,0.167c-0.34,0.111-0.702,0.26-1.085,0.445
					c-0.383,0.184-0.747,0.398-1.094,0.639c-0.346,0.241-0.593,0.498-0.741,0.77c-0.197,0.347-0.426,0.785-0.686,1.316
					c-0.26,0.531-0.528,1.088-0.807,1.668c-0.278,0.581-0.547,1.156-0.807,1.725c-0.259,0.568-0.481,1.056-0.667,1.464
					c-0.148,0.358-0.343,0.68-0.584,0.964c-0.241,0.284-0.504,0.525-0.788,0.723c-0.284,0.198-0.574,0.353-0.871,0.464
					c-0.296,0.111-0.568,0.167-0.815,0.167c-0.284,0-0.51-0.074-0.677-0.223c-0.167-0.148-0.25-0.39-0.25-0.723
					c0-0.136,0.021-0.306,0.064-0.51c0.044-0.204,0.133-0.43,0.27-0.677c0.222-0.42,0.447-0.877,0.676-1.372
					c0.229-0.494,0.492-1.06,0.788-1.696c0.297-0.636,0.64-1.365,1.029-2.186c0.389-0.822,0.85-1.771,1.381-2.846
					c-0.174-0.148-0.318-0.33-0.436-0.547c-0.118-0.216-0.177-0.485-0.177-0.807c0-0.296,0.062-0.553,0.186-0.769
					c0.124-0.217,0.29-0.393,0.501-0.528c0.21-0.137,0.454-0.238,0.732-0.307c0.277-0.067,0.571-0.102,0.88-0.102
					c0.321,0,0.643,0.027,0.964,0.083c0.321,0.056,0.608,0.14,0.862,0.251c0.253,0.111,0.46,0.247,0.621,0.407
					c0.16,0.161,0.241,0.347,0.241,0.557c0,0.037-0.013,0.086-0.037,0.148c-0.025,0.062-0.053,0.129-0.084,0.203
					c-0.031,0.074-0.059,0.143-0.083,0.204c-0.025,0.062-0.037,0.111-0.037,0.148c0,0.024,0.006,0.037,0.019,0.037h0.019
					L70.559,136.497z"/>
				<path class="st3" d="M88.038,133.809c1.025,0,1.792,0.247,2.299,0.741c0.506,0.494,0.76,1.18,0.76,2.058
					c0,0.519-0.137,1.062-0.408,1.631c-0.271,0.568-0.741,1.146-1.408,1.733c-0.668,0.587-1.561,1.186-2.679,1.798
					c-1.119,0.612-2.519,1.227-4.199,1.845c0.062,0.358,0.254,0.64,0.575,0.844c0.321,0.203,0.747,0.306,1.279,0.306
					c0.567,0,1.177-0.084,1.825-0.25c0.65-0.167,1.291-0.381,1.928-0.64c0.637-0.26,1.258-0.541,1.863-0.844
					c0.605-0.303,1.152-0.59,1.641-0.862c0.488-0.271,0.896-0.506,1.224-0.704c0.327-0.197,0.547-0.321,0.658-0.371
					c0.11-0.074,0.213-0.117,0.306-0.129c0.093-0.013,0.176-0.019,0.25-0.019c0.148,0,0.271,0.034,0.371,0.102
					c0.099,0.068,0.182,0.148,0.25,0.241c0.067,0.093,0.114,0.191,0.139,0.296c0.024,0.105,0.037,0.195,0.037,0.27
					c0,0.111-0.013,0.244-0.037,0.398c-0.024,0.154-0.117,0.33-0.277,0.528c-0.062,0.062-0.27,0.229-0.621,0.5
					c-0.353,0.272-0.807,0.594-1.363,0.964c-0.556,0.371-1.201,0.764-1.937,1.178c-0.735,0.414-1.514,0.794-2.336,1.14
					c-0.822,0.346-1.678,0.634-2.567,0.862c-0.89,0.229-1.768,0.343-2.632,0.343c-0.741,0-1.399-0.143-1.975-0.427
					c-0.574-0.284-1.062-0.667-1.464-1.149c-0.402-0.481-0.708-1.038-0.918-1.668c-0.21-0.63-0.315-1.291-0.315-1.983
					c0-0.531,0.105-1.115,0.315-1.752c0.21-0.636,0.513-1.275,0.908-1.918c0.396-0.643,0.881-1.271,1.455-1.882
					c0.575-0.611,1.221-1.152,1.938-1.622c0.717-0.47,1.504-0.847,2.363-1.131C86.144,133.951,87.061,133.809,88.038,133.809z
					 M87.37,136.367c-0.062-0.012-0.117-0.019-0.166-0.019c-0.05,0-0.105,0-0.167,0c-0.47,0-0.908,0.093-1.316,0.278
					c-0.407,0.186-0.781,0.43-1.121,0.732c-0.34,0.303-0.643,0.645-0.908,1.028c-0.267,0.383-0.504,0.764-0.714,1.14
					c-0.21,0.378-0.387,0.739-0.528,1.085c-0.143,0.346-0.25,0.637-0.324,0.871c0.432-0.223,0.88-0.476,1.344-0.76
					c0.463-0.284,0.898-0.557,1.307-0.815c0.408-0.26,0.763-0.494,1.066-0.705c0.302-0.21,0.516-0.352,0.639-0.426
					c0.557-0.346,0.939-0.671,1.149-0.974c0.21-0.303,0.315-0.565,0.315-0.788c0-0.184-0.059-0.333-0.176-0.444
					C87.651,136.46,87.519,136.392,87.37,136.367z"/>
				<path class="st3" d="M98.085,136.868c0.754,0.396,1.427,0.847,2.021,1.353c0.593,0.507,1.097,1.041,1.511,1.604
					c0.414,0.562,0.729,1.134,0.945,1.715c0.216,0.581,0.324,1.149,0.324,1.705c0,0.705-0.201,1.338-0.603,1.9
					s-0.927,1.038-1.575,1.427c-0.649,0.39-1.391,0.686-2.225,0.891c-0.834,0.203-1.678,0.306-2.53,0.306
					c-0.643,0-1.267-0.071-1.872-0.213c-0.605-0.143-1.159-0.362-1.659-0.658c-0.501-0.297-0.93-0.677-1.288-1.141
					c-0.358-0.463-0.612-1.016-0.761-1.659c-0.024-0.099-0.037-0.179-0.037-0.24c0-0.334,0.118-0.621,0.353-0.862
					c0.234-0.241,0.494-0.361,0.778-0.361c0.136,0,0.288,0.024,0.454,0.074c0.167,0.05,0.294,0.16,0.381,0.333
					c0.16,0.297,0.386,0.562,0.676,0.798c0.291,0.234,0.615,0.435,0.974,0.602c0.358,0.166,0.738,0.296,1.14,0.389
					c0.401,0.093,0.794,0.14,1.178,0.14c0.395,0,0.775-0.037,1.14-0.111c0.364-0.074,0.686-0.191,0.964-0.352
					c0.278-0.16,0.497-0.364,0.658-0.611c0.16-0.247,0.241-0.55,0.241-0.908c0-0.631-0.143-1.212-0.427-1.743
					c-0.284-0.531-0.652-1.023-1.103-1.474c-0.451-0.451-0.964-0.871-1.539-1.261c-0.574-0.389-1.146-0.763-1.715-1.121
					c-0.062-0.037-0.154-0.146-0.277-0.324c-0.124-0.179-0.186-0.361-0.186-0.547c0-0.148,0.037-0.266,0.111-0.352
					c0.197-0.259,0.426-0.524,0.686-0.797c0.26-0.271,0.538-0.521,0.834-0.751c0.297-0.229,0.618-0.414,0.964-0.556
					c0.346-0.142,0.705-0.213,1.075-0.213c0.271,0,0.525,0.037,0.76,0.11c0.235,0.074,0.433,0.171,0.594,0.288
					c0.16,0.117,0.287,0.247,0.38,0.389c0.093,0.143,0.139,0.275,0.139,0.398c0,0.174-0.043,0.341-0.13,0.501
					c-0.086,0.161-0.2,0.315-0.343,0.463c-0.142,0.148-0.303,0.297-0.481,0.445C98.434,136.59,98.258,136.731,98.085,136.868z"/>
				<path class="st3" d="M109.411,136.868c0.754,0.396,1.427,0.847,2.021,1.353c0.593,0.507,1.097,1.041,1.511,1.604
					s0.729,1.134,0.945,1.715c0.216,0.581,0.324,1.149,0.324,1.705c0,0.705-0.201,1.338-0.603,1.9
					c-0.401,0.562-0.927,1.038-1.575,1.427c-0.649,0.39-1.391,0.686-2.225,0.891c-0.834,0.203-1.678,0.306-2.53,0.306
					c-0.643,0-1.267-0.071-1.872-0.213c-0.605-0.143-1.159-0.362-1.659-0.658c-0.501-0.297-0.93-0.677-1.288-1.141
					c-0.358-0.463-0.612-1.016-0.761-1.659c-0.024-0.099-0.037-0.179-0.037-0.24c0-0.334,0.118-0.621,0.353-0.862
					c0.234-0.241,0.494-0.361,0.778-0.361c0.136,0,0.288,0.024,0.454,0.074c0.167,0.05,0.294,0.16,0.381,0.333
					c0.16,0.297,0.386,0.562,0.676,0.798c0.291,0.234,0.615,0.435,0.974,0.602c0.358,0.166,0.738,0.296,1.14,0.389
					c0.401,0.093,0.794,0.14,1.178,0.14c0.395,0,0.775-0.037,1.14-0.111c0.364-0.074,0.686-0.191,0.964-0.352
					c0.278-0.16,0.497-0.364,0.658-0.611c0.16-0.247,0.241-0.55,0.241-0.908c0-0.631-0.143-1.212-0.427-1.743
					c-0.284-0.531-0.652-1.023-1.103-1.474c-0.451-0.451-0.964-0.871-1.539-1.261c-0.574-0.389-1.146-0.763-1.715-1.121
					c-0.062-0.037-0.154-0.146-0.277-0.324c-0.124-0.179-0.186-0.361-0.186-0.547c0-0.148,0.037-0.266,0.111-0.352
					c0.197-0.259,0.426-0.524,0.686-0.797c0.26-0.271,0.538-0.521,0.834-0.751c0.297-0.229,0.618-0.414,0.964-0.556
					c0.346-0.142,0.705-0.213,1.075-0.213c0.271,0,0.525,0.037,0.76,0.11c0.235,0.074,0.433,0.171,0.594,0.288
					c0.16,0.117,0.287,0.247,0.38,0.389c0.093,0.143,0.139,0.275,0.139,0.398c0,0.174-0.043,0.341-0.13,0.501
					c-0.086,0.161-0.2,0.315-0.343,0.463c-0.142,0.148-0.303,0.297-0.481,0.445C109.76,136.59,109.584,136.731,109.411,136.868z"/>
				<path class="st3" d="M123.48,133.828c0.47,0,0.974,0.062,1.511,0.185c0.538,0.124,1.035,0.334,1.492,0.631
					c0.457,0.296,0.837,0.688,1.14,1.177c0.303,0.488,0.455,1.091,0.455,1.808c0,0.37-0.05,0.794-0.148,1.27
					c-0.1,0.476-0.248,0.974-0.445,1.492c0.123,0.148,0.266,0.254,0.427,0.315c0.16,0.062,0.333,0.093,0.519,0.093
					c0.26,0,0.547-0.074,0.862-0.223c0.315-0.148,0.64-0.34,0.973-0.575c0.334-0.234,0.668-0.5,1.001-0.797
					c0.334-0.296,0.649-0.593,0.945-0.89c0.297-0.297,0.566-0.577,0.807-0.844c0.241-0.265,0.441-0.491,0.603-0.676
					c0.086-0.087,0.191-0.13,0.315-0.13c0.173,0,0.327,0.09,0.463,0.269c0.136,0.18,0.204,0.43,0.204,0.751
					c0,0.321-0.096,0.692-0.287,1.112c-0.191,0.42-0.547,0.858-1.066,1.315c-0.296,0.322-0.636,0.692-1.02,1.112
					c-0.383,0.421-0.791,0.815-1.223,1.187c-0.433,0.371-0.884,0.686-1.354,0.945c-0.47,0.26-0.939,0.39-1.409,0.39
					c-0.321,0-0.633-0.05-0.936-0.148c-0.303-0.099-0.609-0.26-0.918-0.482c-0.444,0.692-0.951,1.323-1.52,1.892
					c-0.568,0.568-1.202,1.056-1.9,1.464c-0.698,0.408-1.452,0.727-2.262,0.955c-0.81,0.229-1.671,0.343-2.586,0.343
					c-0.346,0-0.747-0.068-1.204-0.204c-0.458-0.136-0.894-0.361-1.308-0.677c-0.414-0.315-0.763-0.726-1.047-1.232
					c-0.284-0.507-0.427-1.124-0.427-1.854c0-0.494,0.08-1.088,0.241-1.78c0.16-0.691,0.404-1.405,0.732-2.141
					c0.327-0.735,0.741-1.464,1.242-2.188c0.5-0.723,1.097-1.371,1.788-1.946c0.692-0.574,1.483-1.038,2.373-1.39
					C121.404,134.004,122.393,133.828,123.48,133.828z M122.517,137.09c-0.581,0-1.14,0.145-1.678,0.436
					c-0.537,0.291-1.014,0.674-1.427,1.149c-0.415,0.477-0.745,1.014-0.992,1.613c-0.247,0.6-0.371,1.214-0.371,1.844
					c0,0.235,0.019,0.491,0.056,0.77c0.037,0.278,0.114,0.538,0.232,0.778c0.117,0.241,0.287,0.442,0.51,0.602
					c0.222,0.161,0.519,0.241,0.89,0.241c0.568,0,1.121-0.151,1.659-0.454c0.537-0.303,1.016-0.698,1.437-1.187
					c0.42-0.488,0.753-1.041,1.001-1.659c0.247-0.617,0.37-1.242,0.37-1.872c0-0.247-0.016-0.503-0.046-0.77
					c-0.031-0.266-0.105-0.51-0.223-0.731c-0.117-0.223-0.287-0.405-0.51-0.547C123.202,137.161,122.899,137.09,122.517,137.09z"/>
			</g>
		</g>
	</g>
	<polygon class="st1" points="72.203,169.569 75.113,175.465 81.62,176.411 76.912,181.001 78.023,187.481 72.203,184.421 
		66.383,187.481 67.495,181.001 62.786,176.411 69.293,175.465 	"/>
</g>
</svg>