<!-- Generator: Adobe Illustrator 19.2.1, SVG Export Plug-In  -->
<svg version="1.1"
	 xmlns="http://www.w3.org/2000/svg" xmlns:xlink="http://www.w3.org/1999/xlink" xmlns:a="http://ns.adobe.com/AdobeSVGViewerExtensions/3.0/"
	 x="0px" y="0px" width="73.031px" height="18.573px" viewBox="0 0 73.031 18.573"
	 style="enable-background:new 0 0 73.031 18.573;" xml:space="preserve">
<style type="text/css">
	.st0{fill:#FFF4EE;}
</style>
<defs>
</defs>
<g>
	<path class="st0" d="M11.75,18.573H0V0h2.47v16.377h9.28V18.573z"/>
	<path class="st0" d="M28.863,18.573h-2.632l-1.821-5.176h-8.033l-1.821,5.176h-2.507L18.81,0h3.293L28.863,18.573z M23.649,11.276
		l-3.255-9.118l-3.268,9.118H23.649z"/>
	<path class="st0" d="M43.432,2.195h-6.636v16.377h-2.47V2.195h-6.636V0h15.741V2.195z"/>
	<path class="st0" d="M58.3,2.195h-6.636v16.377h-2.47V2.195h-6.636V0H58.3V2.195z"/>
	<path class="st0" d="M73.031,18.573H60.795V0h12.236v2.195h-9.767v5.089h9.767v2.195h-9.767v6.898h9.767V18.573z"/>
</g>
</svg>