<!-- Generator: Adobe Illustrator 19.2.1, SVG Export Plug-In  -->
<svg version="1.1"
	 xmlns="http://www.w3.org/2000/svg" xmlns:xlink="http://www.w3.org/1999/xlink" xmlns:a="http://ns.adobe.com/AdobeSVGViewerExtensions/3.0/"
	 x="0px" y="0px" width="177.607px" height="194.872px" viewBox="0 0 177.607 194.872"
	 style="enable-background:new 0 0 177.607 194.872;" xml:space="preserve">
<style type="text/css">
	.st0{fill:#E4DCCF;}
	.st1{fill:#754D38;}
	.st2{fill:#FAEBCD;}
	.st3{fill:#FFFFFF;}
	.st4{opacity:0.1;}
</style>
<defs>
</defs>
<g>
	<g>
		<g>
			<rect x="5.982" y="109.141" class="st0" width="140.415" height="5.582"/>
			<g>
				<path class="st0" d="M74.899,8.538H0c0,0,0.33,53.635,20.662,73.966c16.441,16.441,43.428,18.014,53.159,18.014
					c0.971,0,1.77-0.016,2.37-0.034c0.599,0.018,1.399,0.034,2.369,0.034c9.729,0,36.717-1.572,53.159-18.014
					C152.05,62.173,152.38,8.538,152.38,8.538H77.481H74.899z M127.64,78.426c-15.148,15.148-41.397,16.325-49.081,16.325
					c-0.899,0-1.64-0.014-2.195-0.031l-0.174-0.005l-0.174,0.005c-0.556,0.017-1.296,0.031-2.196,0.031
					c-7.684,0-33.933-1.177-49.081-16.325C10.047,63.734,6.724,28.284,5.979,14.305h68.919h2.583h68.954
					C145.56,31.617,141.206,64.861,127.64,78.426z"/>
				<rect x="53.394" y="97.712" class="st0" width="45.591" height="7.286"/>
				<path class="st0" d="M167.819,19.883c-8.298-5.295-18.462-1.928-18.891-1.782l1.851,5.462c0.079-0.028,8.031-2.614,13.968,1.201
					c3.858,2.479,6.188,7.24,6.927,14.152c1.326,12.405-5.302,18.279-9.371,20.676c-6.406,3.774-15.172,4.098-19.955,0.738
					l-3.315,4.718c3.233,2.271,7.467,3.4,11.937,3.4c4.8-0.001,9.871-1.302,14.26-3.888c8.959-5.278,13.397-14.848,12.178-26.257
					C176.473,29.544,173.246,23.346,167.819,19.883z"/>
			</g>
		</g>
		<path class="st1" d="M74.899,14.305H5.979c0.745,13.979,4.067,49.429,18.76,64.122C39.887,93.574,66.136,94.752,73.82,94.752
			c0.9,0,1.64-0.014,2.196-0.031l0.174-0.005l0.174,0.005c0.555,0.017,1.297,0.031,2.195,0.031c7.684,0,33.933-1.177,49.081-16.325
			c13.565-13.565,17.919-46.809,18.795-64.122H77.481H74.899z"/>
		<path class="st2" d="M74.899,14.305H5.979c0.513,9.623,2.248,29.42,8.072,45.617h124.182c5.455-15.207,7.615-33.997,8.203-45.617
			H77.481H74.899z"/>
		<path class="st3" d="M74.899,14.305H5.979c0.162,3.035,0.446,7.086,0.941,11.713h138.554c0.48-4.331,0.79-8.331,0.961-11.713
			H77.481H74.899z"/>
		<path class="st3" d="M135.482,0c0,0-112.252,0-120.047,0S5.982,8.474,5.982,8.474h140.415C146.397,0.428,135.482,0,135.482,0z"/>
		<path class="st4" d="M135.482,0c0,0-29.481,0-59.275,0v8.474h70.19C146.398,0.428,135.482,0,135.482,0z"/>
		<path class="st4" d="M76.207,94.716l0.157,0.005c0.555,0.017,1.296,0.031,2.195,0.031c7.684,0,33.933-1.177,49.081-16.325
			c4.46-4.46,7.92-11.055,10.592-18.505l0.001-0.002c3.058-8.526,5.081-18.171,6.37-27.056c0.008-0.054,0.016-0.108,0.024-0.163
			c0.277-1.924,0.521-3.81,0.734-5.641c0.01-0.091,0.02-0.179,0.031-0.27c0.091-0.793,0.176-1.575,0.255-2.345
			c0.015-0.144,0.03-0.288,0.044-0.431c0.169-1.678,0.313-3.295,0.431-4.835c0.015-0.194,0.028-0.383,0.043-0.575
			c0.038-0.515,0.074-1.02,0.107-1.516c0.006-0.083,0.011-0.167,0.017-0.249c0.011-0.169,0.022-0.336,0.032-0.502
			c0.043-0.696,0.083-1.379,0.116-2.032H76.207V94.716z"/>
		<g>
			<g>
				<path class="st3" d="M47.225,135.7c0.186-0.371,0.408-0.698,0.667-0.983c0.26-0.284,0.538-0.519,0.834-0.704
					c0.297-0.186,0.6-0.325,0.909-0.417c0.309-0.093,0.599-0.139,0.871-0.139c0.396,0,0.729,0.102,1.001,0.306
					c0.271,0.204,0.408,0.504,0.408,0.899c0,0.309-0.081,0.643-0.241,1.001c-0.692,1.483-1.397,2.975-2.113,4.477
					c-0.717,1.501-1.437,2.969-2.16,4.402c-0.723,1.434-1.431,2.815-2.123,4.143c-0.692,1.329-1.359,2.561-2.002,3.698
					c-0.643,1.137-1.245,2.157-1.807,3.059c-0.562,0.902-1.072,1.65-1.529,2.243c1.075-0.074,2.058-0.173,2.947-0.296
					c0.89-0.124,1.749-0.266,2.577-0.427c0.828-0.16,1.659-0.336,2.493-0.528c0.834-0.191,1.733-0.386,2.697-0.583
					c0.062-0.025,0.129-0.043,0.204-0.056c0.074-0.012,0.142-0.019,0.204-0.019c0.383,0,0.686,0.151,0.908,0.454
					c0.223,0.303,0.333,0.646,0.333,1.029c0,0.235-0.222,0.485-0.667,0.75c-0.445,0.266-1.054,0.528-1.826,0.788
					c-0.772,0.259-1.681,0.51-2.725,0.751c-1.044,0.241-2.172,0.451-3.383,0.63c-1.211,0.179-2.478,0.321-3.8,0.426
					c-1.323,0.105-2.639,0.158-3.948,0.158c-1.52,0-2.83-0.105-3.93-0.315c-1.1-0.21-2.005-0.501-2.716-0.872
					c-0.711-0.371-1.236-0.809-1.576-1.316s-0.51-1.057-0.51-1.65c0-0.581,0.108-1.072,0.324-1.474
					c0.216-0.401,0.513-0.726,0.89-0.973c0.376-0.247,0.821-0.426,1.335-0.538c0.513-0.111,1.066-0.167,1.659-0.167
					c0.482,0,0.982,0.087,1.501,0.26c0.519,0.173,1.029,0.398,1.529,0.677c0.5,0.278,0.976,0.587,1.427,0.927
					c0.451,0.34,0.843,0.683,1.177,1.029c0.284-0.742,0.627-1.569,1.028-2.484c0.402-0.915,0.837-1.876,1.307-2.883
					c0.469-1.007,0.964-2.039,1.483-3.096c0.519-1.057,1.038-2.097,1.557-3.123c0.519-1.026,1.025-2.014,1.52-2.966
					c0.494-0.951,0.951-1.822,1.372-2.613c0.42-0.791,0.794-1.489,1.122-2.095C46.783,136.485,47.04,136.022,47.225,135.7z
					 M30.746,156.332c0,0.161,0.086,0.324,0.26,0.491c0.173,0.166,0.441,0.324,0.806,0.473c0.364,0.148,0.834,0.269,1.409,0.361
					c0.575,0.093,1.264,0.146,2.067,0.158c-0.371-0.198-0.745-0.405-1.122-0.621c-0.377-0.216-0.738-0.414-1.084-0.593
					c-0.346-0.179-0.661-0.327-0.945-0.445c-0.284-0.117-0.525-0.176-0.723-0.176C30.969,155.979,30.746,156.097,30.746,156.332z"/>
				<path class="st3" d="M70.859,154.867c-0.223,0.21-0.519,0.501-0.89,0.871c-0.371,0.371-0.794,0.772-1.27,1.205
					c-0.477,0.433-0.982,0.869-1.521,1.307c-0.537,0.439-1.087,0.837-1.649,1.196c-0.562,0.358-1.115,0.652-1.659,0.88
					s-1.057,0.343-1.538,0.343c-0.434,0-0.804-0.093-1.112-0.278c-0.31-0.186-0.565-0.427-0.77-0.723
					c-0.204-0.296-0.355-0.633-0.454-1.01c-0.1-0.377-0.149-0.763-0.149-1.159c0-0.259,0.019-0.516,0.056-0.769
					c0.037-0.253,0.099-0.491,0.186-0.714c-0.384,0.519-0.819,1.054-1.307,1.604c-0.488,0.55-1.014,1.051-1.576,1.501
					c-0.562,0.451-1.149,0.822-1.761,1.112c-0.612,0.29-1.233,0.436-1.863,0.436c-0.321,0-0.695-0.065-1.121-0.195
					c-0.427-0.129-0.832-0.343-1.214-0.639c-0.383-0.297-0.705-0.68-0.964-1.149c-0.26-0.47-0.389-1.044-0.389-1.724
					c0-0.506,0.077-1.112,0.231-1.816c0.154-0.705,0.389-1.436,0.705-2.197c0.315-0.76,0.716-1.511,1.205-2.252
					c0.488-0.742,1.066-1.406,1.733-1.993c0.667-0.587,1.427-1.063,2.28-1.427c0.853-0.365,1.804-0.547,2.855-0.547
					c0.544,0,1.02,0.068,1.428,0.204c0.407,0.136,0.753,0.285,1.038,0.445c0.32,0.198,0.604,0.415,0.853,0.649
					c0.21-0.111,0.426-0.216,0.648-0.315c0.186-0.086,0.38-0.164,0.584-0.232c0.204-0.068,0.38-0.102,0.528-0.102
					c0.47,0,0.853,0.13,1.149,0.39c0.296,0.259,0.444,0.544,0.444,0.852c0,0.087-0.006,0.155-0.019,0.204
					c-0.062,0.235-0.157,0.531-0.287,0.89c-0.13,0.358-0.275,0.757-0.435,1.195c-0.161,0.439-0.324,0.896-0.491,1.372
					c-0.167,0.475-0.318,0.942-0.454,1.399c-0.136,0.458-0.247,0.887-0.334,1.288c-0.086,0.402-0.13,0.745-0.13,1.029
					c0,0.371,0.062,0.677,0.186,0.918c0.124,0.241,0.334,0.361,0.631,0.361c0.185,0,0.404-0.059,0.658-0.176
					c0.253-0.117,0.527-0.275,0.824-0.473c0.297-0.197,0.603-0.423,0.918-0.677c0.314-0.253,0.621-0.51,0.917-0.769
					c0.692-0.618,1.428-1.322,2.206-2.113c0.197-0.16,0.39-0.241,0.575-0.241c0.247,0,0.454,0.12,0.621,0.361
					c0.166,0.241,0.25,0.51,0.25,0.806C71.212,154.342,71.094,154.632,70.859,154.867z M58.013,150.085
					c-0.581,0-1.144,0.148-1.687,0.445c-0.544,0.297-1.026,0.686-1.446,1.168c-0.42,0.482-0.754,1.022-1.001,1.622
					c-0.248,0.6-0.371,1.202-0.371,1.807c0,0.247,0.015,0.504,0.046,0.77c0.031,0.266,0.102,0.51,0.213,0.732
					c0.111,0.223,0.269,0.408,0.473,0.556c0.204,0.148,0.479,0.223,0.825,0.223c0.272,0,0.59-0.121,0.955-0.362
					c0.364-0.241,0.741-0.55,1.13-0.927c0.39-0.377,0.77-0.791,1.141-1.242c0.37-0.451,0.704-0.893,1.001-1.326
					c0.296-0.432,0.537-0.822,0.723-1.168c0.186-0.346,0.278-0.599,0.278-0.76c0-0.234-0.081-0.448-0.241-0.64
					c-0.161-0.191-0.358-0.355-0.594-0.491c-0.234-0.136-0.484-0.238-0.75-0.306C58.442,150.119,58.211,150.085,58.013,150.085z"/>
				<path class="st3" d="M74.456,149.899c-0.458,0.89-0.891,1.758-1.298,2.604c-0.408,0.847-0.791,1.628-1.149,2.345
					c-0.148,0.296-0.294,0.639-0.436,1.029c-0.143,0.389-0.213,0.732-0.213,1.029c0,0.173,0.04,0.309,0.12,0.408
					c0.08,0.099,0.213,0.148,0.398,0.148c0.26,0,0.587-0.077,0.982-0.231c0.396-0.154,0.822-0.358,1.279-0.612
					c0.457-0.253,0.938-0.544,1.445-0.871c0.507-0.327,1.004-0.667,1.493-1.02c0.487-0.352,0.954-0.705,1.399-1.057
					c0.444-0.352,0.84-0.677,1.186-0.973c0.198-0.136,0.384-0.204,0.557-0.204c0.21,0,0.383,0.093,0.519,0.278
					c0.136,0.185,0.204,0.42,0.204,0.704c0,0.285-0.068,0.575-0.204,0.872c-0.136,0.296-0.383,0.587-0.741,0.871
					c-0.804,0.729-1.616,1.421-2.438,2.076c-0.822,0.655-1.638,1.232-2.447,1.733s-1.609,0.899-2.4,1.196s-1.557,0.445-2.298,0.445
					c-0.495,0-0.908-0.065-1.242-0.195c-0.334-0.129-0.603-0.309-0.807-0.537s-0.35-0.494-0.436-0.797
					c-0.087-0.303-0.13-0.627-0.13-0.973c0-0.618,0.105-1.26,0.315-1.928c0.21-0.668,0.444-1.267,0.704-1.798
					c0.371-0.766,0.738-1.526,1.104-2.28c0.364-0.754,0.72-1.477,1.065-2.169h-0.797c-0.692,0-1.168-0.111-1.428-0.334
					c-0.26-0.223-0.389-0.476-0.389-0.76c0-0.123,0.04-0.275,0.12-0.454c0.08-0.179,0.197-0.346,0.353-0.501
					c0.154-0.154,0.343-0.287,0.565-0.398c0.222-0.111,0.476-0.167,0.76-0.167h2.002l3.911-7.767c0.247-0.47,0.553-0.807,0.918-1.01
					c0.364-0.204,0.744-0.306,1.14-0.306c0.371,0,0.71,0.099,1.02,0.297c0.309,0.198,0.463,0.525,0.463,0.982
					c0,0.235-0.052,0.473-0.157,0.713c-0.105,0.241-0.244,0.522-0.417,0.844c-0.111,0.21-0.247,0.46-0.408,0.75
					c-0.16,0.291-0.33,0.6-0.51,0.927c-0.179,0.328-0.364,0.671-0.556,1.029c-0.191,0.359-0.38,0.705-0.565,1.038
					c-0.42,0.791-0.865,1.626-1.335,2.502h6.043c0.297,0,0.568,0.016,0.816,0.046c0.247,0.031,0.46,0.093,0.639,0.186
					c0.18,0.093,0.318,0.22,0.418,0.38c0.099,0.161,0.147,0.377,0.147,0.649c0,0.136-0.021,0.272-0.064,0.408
					c-0.044,0.136-0.124,0.26-0.241,0.371c-0.117,0.111-0.278,0.204-0.481,0.278c-0.204,0.074-0.467,0.124-0.788,0.148
					L74.456,149.899z"/>
				<path class="st3" d="M84.243,149.899c-0.458,0.89-0.891,1.758-1.298,2.604c-0.408,0.847-0.791,1.628-1.149,2.345
					c-0.148,0.296-0.294,0.639-0.436,1.029c-0.143,0.389-0.213,0.732-0.213,1.029c0,0.173,0.04,0.309,0.12,0.408
					c0.08,0.099,0.213,0.148,0.398,0.148c0.26,0,0.587-0.077,0.982-0.231c0.396-0.154,0.822-0.358,1.279-0.612
					c0.457-0.253,0.938-0.544,1.445-0.871c0.507-0.327,1.004-0.667,1.493-1.02c0.487-0.352,0.954-0.705,1.399-1.057
					c0.444-0.352,0.84-0.677,1.186-0.973c0.198-0.136,0.384-0.204,0.557-0.204c0.21,0,0.383,0.093,0.519,0.278
					c0.136,0.185,0.204,0.42,0.204,0.704c0,0.285-0.068,0.575-0.204,0.872c-0.136,0.296-0.383,0.587-0.741,0.871
					c-0.804,0.729-1.616,1.421-2.438,2.076c-0.822,0.655-1.638,1.232-2.447,1.733c-0.81,0.501-1.609,0.899-2.4,1.196
					s-1.557,0.445-2.298,0.445c-0.495,0-0.908-0.065-1.242-0.195c-0.334-0.129-0.603-0.309-0.807-0.537
					c-0.204-0.229-0.35-0.494-0.436-0.797c-0.087-0.303-0.13-0.627-0.13-0.973c0-0.618,0.105-1.26,0.315-1.928
					c0.21-0.668,0.444-1.267,0.704-1.798c0.371-0.766,0.738-1.526,1.104-2.28c0.364-0.754,0.72-1.477,1.066-2.169h-0.797
					c-0.692,0-1.168-0.111-1.428-0.334c-0.26-0.223-0.389-0.476-0.389-0.76c0-0.123,0.04-0.275,0.12-0.454
					c0.08-0.179,0.197-0.346,0.353-0.501c0.154-0.154,0.343-0.287,0.565-0.398c0.222-0.111,0.476-0.167,0.76-0.167h2.002
					l3.911-7.767c0.247-0.47,0.553-0.807,0.918-1.01c0.364-0.204,0.744-0.306,1.14-0.306c0.371,0,0.71,0.099,1.02,0.297
					c0.309,0.198,0.463,0.525,0.463,0.982c0,0.235-0.052,0.473-0.157,0.713c-0.105,0.241-0.244,0.522-0.417,0.844
					c-0.111,0.21-0.247,0.46-0.408,0.75c-0.16,0.291-0.33,0.6-0.51,0.927c-0.179,0.328-0.364,0.671-0.556,1.029
					c-0.191,0.359-0.38,0.705-0.565,1.038c-0.42,0.791-0.865,1.626-1.335,2.502h6.043c0.297,0,0.568,0.016,0.816,0.046
					c0.247,0.031,0.46,0.093,0.639,0.186c0.18,0.093,0.318,0.22,0.418,0.38c0.099,0.161,0.147,0.377,0.147,0.649
					c0,0.136-0.021,0.272-0.064,0.408c-0.044,0.136-0.124,0.26-0.241,0.371c-0.117,0.111-0.278,0.204-0.481,0.278
					c-0.204,0.074-0.467,0.124-0.788,0.148L84.243,149.899z"/>
				<path class="st3" d="M96.83,146.711c1.025,0,1.792,0.247,2.299,0.741c0.506,0.495,0.76,1.18,0.76,2.058
					c0,0.519-0.137,1.063-0.408,1.631c-0.271,0.568-0.741,1.146-1.408,1.733c-0.668,0.587-1.561,1.186-2.679,1.798
					c-1.119,0.612-2.519,1.227-4.199,1.844c0.062,0.359,0.254,0.64,0.575,0.844c0.321,0.204,0.747,0.306,1.279,0.306
					c0.567,0,1.177-0.084,1.825-0.25c0.649-0.167,1.291-0.38,1.928-0.64c0.637-0.26,1.258-0.541,1.863-0.844
					c0.605-0.302,1.152-0.59,1.641-0.862c0.488-0.272,0.896-0.506,1.224-0.704c0.327-0.198,0.547-0.321,0.658-0.371
					c0.11-0.074,0.213-0.117,0.306-0.129c0.093-0.012,0.176-0.019,0.25-0.019c0.148,0,0.271,0.034,0.371,0.102
					c0.099,0.068,0.182,0.148,0.25,0.241c0.067,0.093,0.114,0.192,0.139,0.296c0.025,0.106,0.037,0.195,0.037,0.269
					c0,0.111-0.013,0.244-0.037,0.398c-0.024,0.155-0.117,0.331-0.277,0.528c-0.062,0.062-0.27,0.229-0.621,0.501
					c-0.353,0.272-0.807,0.593-1.363,0.964c-0.556,0.371-1.201,0.763-1.937,1.177c-0.735,0.414-1.514,0.794-2.336,1.14
					c-0.822,0.346-1.678,0.634-2.567,0.862c-0.89,0.229-1.768,0.343-2.632,0.343c-0.741,0-1.399-0.142-1.975-0.426
					c-0.574-0.284-1.062-0.667-1.464-1.149c-0.402-0.482-0.708-1.038-0.918-1.668c-0.21-0.63-0.315-1.292-0.315-1.984
					c0-0.531,0.105-1.115,0.315-1.751c0.21-0.636,0.513-1.276,0.908-1.918c0.396-0.643,0.881-1.27,1.455-1.882
					c0.575-0.611,1.221-1.152,1.938-1.622c0.717-0.47,1.504-0.847,2.363-1.131C94.935,146.853,95.853,146.711,96.83,146.711z
					 M96.162,149.269c-0.062-0.012-0.117-0.019-0.166-0.019c-0.05,0-0.105,0-0.167,0c-0.47,0-0.908,0.093-1.316,0.278
					c-0.407,0.186-0.781,0.43-1.121,0.732c-0.34,0.303-0.643,0.646-0.908,1.029c-0.267,0.383-0.504,0.763-0.714,1.14
					c-0.21,0.377-0.387,0.739-0.528,1.084c-0.143,0.346-0.25,0.637-0.324,0.872c0.432-0.223,0.88-0.476,1.344-0.76
					c0.463-0.284,0.898-0.556,1.307-0.815c0.408-0.26,0.763-0.494,1.066-0.705c0.302-0.21,0.516-0.352,0.639-0.426
					c0.557-0.346,0.939-0.67,1.149-0.973c0.21-0.303,0.315-0.566,0.315-0.788c0-0.185-0.059-0.333-0.176-0.445
					C96.443,149.361,96.31,149.294,96.162,149.269z"/>
			</g>
		</g>
	</g>
	<g>
		<polygon class="st1" points="39.367,176.96 42.277,182.856 48.784,183.802 44.075,188.391 45.187,194.872 39.367,191.812 
			33.547,194.872 34.658,188.391 29.95,183.802 36.457,182.856 		"/>
		<polygon class="st2" points="69.13,176.96 72.04,182.856 78.547,183.802 73.838,188.391 74.95,194.872 69.13,191.812 
			63.31,194.872 64.421,188.391 59.713,183.802 66.22,182.856 		"/>
		<polygon class="st0" points="99.81,176.96 102.72,182.856 109.227,183.802 104.518,188.391 105.63,194.872 99.81,191.812 
			93.99,194.872 95.101,188.391 90.393,183.802 96.9,182.856 		"/>
	</g>
</g>
</svg>