<!-- Generator: Adobe Illustrator 19.2.1, SVG Export Plug-In  -->
<svg version="1.1"
	 xmlns="http://www.w3.org/2000/svg" xmlns:xlink="http://www.w3.org/1999/xlink" xmlns:a="http://ns.adobe.com/AdobeSVGViewerExtensions/3.0/"
	 x="0px" y="0px" width="186.678px" height="226.624px" viewBox="0 0 186.678 226.624"
	 style="enable-background:new 0 0 186.678 226.624;" xml:space="preserve">
<style type="text/css">
	.st0{fill:#E4DCCF;}
	.st1{fill:#754D38;}
	.st2{fill:#ED8A20;}
	.st3{fill:#FFFFFF;}
	.st4{opacity:0.1;}
	.st5{fill:#FFF5E0;}
	.st6{fill:#FAEBCD;}
</style>
<defs>
</defs>
<g>
	<g>
		<g>
			<rect x="15.053" y="110.211" class="st0" width="140.415" height="5.582"/>
			<g>
				<path class="st0" d="M83.969,9.608H9.07c0,0,0.33,53.635,20.662,73.966c16.441,16.441,43.428,18.014,53.159,18.014
					c0.971,0,1.77-0.016,2.369-0.034c0.599,0.018,1.399,0.034,2.37,0.034c9.729,0,36.716-1.572,53.159-18.014
					C161.12,63.243,161.45,9.608,161.45,9.608H86.552H83.969z M136.711,79.496C121.563,94.644,95.314,95.822,87.63,95.822
					c-0.899,0-1.64-0.014-2.195-0.031l-0.174-0.005l-0.174,0.005c-0.556,0.017-1.296,0.031-2.195,0.031
					c-7.684,0-33.933-1.177-49.081-16.325C19.117,64.804,15.794,29.354,15.05,15.375h68.919h2.583h68.954
					C154.63,32.687,150.276,65.931,136.711,79.496z"/>
				<rect x="62.464" y="98.782" class="st0" width="45.592" height="7.286"/>
				<path class="st0" d="M176.89,20.953c-8.299-5.295-18.462-1.928-18.891-1.782l1.851,5.462c0.079-0.028,8.031-2.614,13.968,1.201
					c3.858,2.479,6.188,7.24,6.927,14.152c1.326,12.405-5.302,18.279-9.371,20.676c-6.406,3.774-15.171,4.098-19.955,0.738
					l-3.315,4.718c3.233,2.271,7.467,3.4,11.937,3.4c4.8-0.001,9.871-1.302,14.26-3.888c8.959-5.278,13.397-14.848,12.178-26.257
					C185.543,30.614,182.317,24.416,176.89,20.953z"/>
			</g>
		</g>
		<path class="st1" d="M83.969,15.375H15.05c0.745,13.979,4.067,49.429,18.76,64.122c15.148,15.148,41.397,16.325,49.081,16.325
			c0.9,0,1.64-0.014,2.195-0.031l0.174-0.005l0.174,0.005c0.555,0.017,1.296,0.031,2.195,0.031c7.684,0,33.933-1.177,49.081-16.325
			c13.565-13.565,17.919-46.809,18.795-64.122H86.552H83.969z"/>
		<path class="st2" d="M83.969,15.375H15.05c0.513,9.623,2.248,29.42,8.072,45.617h124.182c5.455-15.207,7.615-33.997,8.203-45.617
			H86.552H83.969z"/>
		<path class="st3" d="M144.552,1.07c0,0-112.252,0-120.047,0s-9.452,8.474-9.452,8.474h140.415
			C155.468,1.498,144.552,1.07,144.552,1.07z"/>
		<path class="st4" d="M144.552,1.201c0,0-29.481,0-59.275,0v8.474h70.19C155.468,1.629,144.552,1.201,144.552,1.201z"/>
		<path class="st4" d="M85.278,95.916l0.157,0.005c0.555,0.017,1.296,0.031,2.195,0.031c7.684,0,33.933-1.177,49.081-16.325
			c4.461-4.46,7.92-11.055,10.592-18.505l0.001-0.002c3.058-8.526,5.081-18.171,6.37-27.056c0.008-0.054,0.016-0.108,0.024-0.163
			c0.277-1.924,0.522-3.81,0.734-5.641c0.01-0.091,0.02-0.179,0.031-0.27c0.091-0.793,0.176-1.575,0.255-2.345
			c0.015-0.144,0.03-0.288,0.044-0.431c0.169-1.678,0.313-3.295,0.431-4.835c0.015-0.194,0.028-0.383,0.043-0.575
			c0.038-0.515,0.074-1.02,0.107-1.516c0.006-0.083,0.011-0.167,0.017-0.249c0.011-0.168,0.022-0.336,0.032-0.502
			c0.043-0.696,0.083-1.379,0.116-2.032H85.278V95.916z"/>
		<path class="st5" d="M83.969,15.375H15.05c0.294,5.518,0.995,14.385,2.633,23.997H152.8c1.573-8.978,2.381-17.582,2.706-23.997
			H86.552H83.969z"/>
		<path class="st3" d="M83.969,15.375H15.05c0.147,2.758,0.396,6.353,0.812,10.458h138.818c0.404-3.848,0.672-7.406,0.826-10.458
			H86.552H83.969z"/>
		<path class="st2" d="M126.324,0H43.899c-0.656,0-1.192,0.537-1.192,1.192s0.537,1.192,1.192,1.192h82.424
			c0.656,0,1.192-0.537,1.192-1.192S126.979,0,126.324,0z"/>
		<g>
			<g>
				<path class="st3" d="M39.733,133.736c0,0.334-0.053,0.734-0.158,1.205c-0.105,0.469-0.256,0.957-0.454,1.464
					c-0.198,0.507-0.435,1.011-0.713,1.511c-0.278,0.5-0.597,0.951-0.955,1.354c-0.358,0.401-0.748,0.726-1.167,0.973
					c-0.42,0.248-0.872,0.371-1.354,0.371c-0.111,0-0.256-0.01-0.436-0.027c-0.179-0.02-0.358-0.062-0.538-0.131
					c-0.179-0.067-0.333-0.17-0.463-0.305c-0.129-0.137-0.194-0.316-0.194-0.538c0-0.148,0.04-0.321,0.12-0.519
					c0.081-0.198,0.226-0.427,0.436-0.687c0.222-0.247,0.463-0.54,0.723-0.88c0.26-0.34,0.494-0.695,0.705-1.066
					c0.21-0.371,0.386-0.735,0.528-1.094c0.142-0.358,0.213-0.68,0.213-0.964c0-0.358-0.083-0.646-0.25-0.862
					c-0.167-0.216-0.454-0.324-0.862-0.324c-0.531,0-1.13,0.174-1.798,0.52s-1.366,0.822-2.095,1.428
					c-0.729,0.605-1.471,1.312-2.224,2.121c-0.754,0.811-1.483,1.676-2.187,2.596c-0.705,0.921-1.369,1.879-1.993,2.873
					c-0.624,0.995-1.168,1.977-1.631,2.947c-0.463,0.971-0.828,1.903-1.094,2.799c-0.266,0.896-0.399,1.709-0.399,2.438
					c0,0.902,0.241,1.626,0.723,2.17c0.482,0.543,1.279,0.814,2.391,0.814c0.519,0,1.291-0.2,2.317-0.602
					c1.026-0.402,1.882-0.803,2.567-1.205c0.686-0.401,1.378-0.846,2.076-1.334c0.698-0.488,1.362-0.958,1.993-1.41
					c0.63-0.45,1.205-0.857,1.724-1.223c0.519-0.364,0.945-0.621,1.279-0.77c0.062-0.049,0.136-0.074,0.223-0.074
					c0.185,0,0.312,0.152,0.38,0.455c0.068,0.303,0.102,0.645,0.102,1.028c0,0.21-0.028,0.466-0.083,0.768
					c-0.056,0.303-0.232,0.652-0.528,1.048c-0.136,0.161-0.389,0.433-0.76,0.815c-0.371,0.383-0.834,0.816-1.391,1.298
					c-0.556,0.481-1.192,0.982-1.909,1.501c-0.717,0.52-1.492,0.995-2.326,1.428c-0.835,0.433-1.91,0.859-3.226,1.279
					c-1.316,0.42-2.462,0.63-3.438,0.63c-1.149,0-2.132-0.14-2.947-0.417c-0.816-0.277-1.483-0.664-2.002-1.158
					c-0.519-0.494-0.899-1.085-1.14-1.77c-0.241-0.687-0.361-1.437-0.361-2.253c0-1.013,0.154-2.1,0.463-3.262
					c0.309-1.162,0.738-2.342,1.288-3.541c0.55-1.198,1.205-2.396,1.965-3.596c0.76-1.199,1.594-2.345,2.503-3.439
					c0.909-1.094,1.875-2.11,2.901-3.05c1.025-0.938,2.076-1.754,3.151-2.446c1.075-0.692,2.157-1.235,3.244-1.632
					c1.087-0.395,2.156-0.593,3.207-0.593c0.519,0,1.013,0.059,1.483,0.177c0.469,0.117,0.88,0.305,1.232,0.564
					c0.353,0.26,0.63,0.603,0.834,1.029C39.631,132.595,39.733,133.117,39.733,133.736z"/>
				<path class="st3" d="M55.823,151.809c-0.222,0.21-0.519,0.501-0.89,0.871c-0.371,0.37-0.794,0.772-1.27,1.204
					c-0.476,0.434-0.982,0.869-1.52,1.308c-0.538,0.439-1.088,0.837-1.65,1.196c-0.562,0.357-1.116,0.651-1.659,0.88
					c-0.544,0.229-1.057,0.343-1.539,0.343c-0.433,0-0.803-0.093-1.112-0.277c-0.309-0.186-0.565-0.428-0.769-0.724
					c-0.204-0.296-0.355-0.634-0.454-1.011c-0.099-0.377-0.148-0.762-0.148-1.158c0-0.26,0.018-0.516,0.056-0.77
					c0.037-0.253,0.099-0.49,0.186-0.713c-0.383,0.519-0.819,1.053-1.307,1.604c-0.488,0.55-1.013,1.051-1.576,1.501
					c-0.562,0.451-1.149,0.822-1.761,1.112c-0.612,0.29-1.233,0.436-1.863,0.436c-0.321,0-0.695-0.064-1.121-0.195
					c-0.427-0.129-0.831-0.342-1.214-0.639c-0.383-0.297-0.705-0.68-0.964-1.149c-0.26-0.47-0.389-1.044-0.389-1.724
					c0-0.507,0.077-1.112,0.231-1.816c0.154-0.705,0.389-1.438,0.705-2.197c0.315-0.76,0.716-1.511,1.205-2.252
					c0.488-0.742,1.066-1.406,1.733-1.992c0.667-0.588,1.427-1.063,2.28-1.428c0.853-0.365,1.804-0.547,2.854-0.547
					c0.543,0,1.02,0.068,1.427,0.203c0.408,0.137,0.754,0.285,1.038,0.445c0.321,0.198,0.605,0.414,0.852,0.648
					c0.21-0.111,0.426-0.215,0.649-0.314c0.186-0.086,0.38-0.164,0.584-0.232c0.204-0.067,0.38-0.102,0.528-0.102
					c0.469,0,0.853,0.13,1.15,0.39c0.296,0.259,0.445,0.544,0.445,0.852c0,0.086-0.006,0.154-0.019,0.204
					c-0.062,0.235-0.158,0.531-0.288,0.89c-0.129,0.358-0.275,0.757-0.436,1.195c-0.161,0.439-0.324,0.896-0.491,1.372
					s-0.318,0.942-0.454,1.399c-0.136,0.457-0.248,0.887-0.333,1.288c-0.087,0.401-0.13,0.745-0.13,1.028
					c0,0.371,0.062,0.678,0.186,0.918c0.123,0.241,0.333,0.361,0.63,0.361c0.186,0,0.405-0.059,0.658-0.176
					c0.253-0.117,0.528-0.275,0.825-0.473c0.297-0.197,0.603-0.424,0.918-0.677c0.315-0.253,0.621-0.51,0.917-0.769
					c0.692-0.618,1.427-1.322,2.206-2.113c0.198-0.16,0.39-0.241,0.575-0.241c0.247,0,0.454,0.12,0.621,0.361
					c0.167,0.241,0.25,0.51,0.25,0.806C56.176,151.283,56.058,151.574,55.823,151.809z M42.977,147.027
					c-0.581,0-1.144,0.148-1.687,0.444c-0.544,0.297-1.026,0.687-1.446,1.168c-0.42,0.482-0.754,1.023-1.001,1.622
					c-0.248,0.6-0.371,1.201-0.371,1.807c0,0.248,0.015,0.504,0.046,0.77c0.031,0.266,0.102,0.51,0.213,0.732
					s0.269,0.408,0.473,0.557c0.204,0.148,0.479,0.223,0.825,0.223c0.272,0,0.59-0.121,0.955-0.362
					c0.364-0.241,0.741-0.55,1.13-0.927c0.39-0.377,0.77-0.791,1.14-1.242c0.371-0.451,0.705-0.893,1.001-1.325
					c0.297-0.433,0.538-0.821,0.723-1.168c0.185-0.346,0.278-0.599,0.278-0.76c0-0.234-0.081-0.448-0.241-0.64
					c-0.161-0.191-0.359-0.355-0.593-0.491c-0.235-0.136-0.485-0.237-0.751-0.306C43.407,147.06,43.175,147.027,42.977,147.027z"/>
				<path class="st3" d="M60.365,146.34c0.482-0.296,0.979-0.567,1.492-0.815c0.513-0.247,1.01-0.461,1.492-0.64
					c0.482-0.179,0.942-0.321,1.381-0.427c0.438-0.104,0.831-0.157,1.177-0.157c0.556,0,0.985,0.134,1.289,0.4
					c0.303,0.266,0.454,0.713,0.454,1.344c0,0.136-0.006,0.281-0.019,0.436c-0.013,0.154-0.037,0.318-0.074,0.49
					c-0.062,0.322-0.247,0.699-0.556,1.131c-0.309,0.433-0.67,0.885-1.084,1.354c-0.414,0.47-0.859,0.942-1.334,1.418
					c-0.476,0.477-0.915,0.915-1.316,1.316c-0.402,0.402-0.735,0.75-1.001,1.047c-0.266,0.297-0.399,0.501-0.399,0.612
					c0,0.099,0.006,0.167,0.018,0.204c0.012,0.037,0.068,0.055,0.167,0.055c0.668-0.283,1.412-0.627,2.234-1.028
					c0.821-0.401,1.64-0.812,2.456-1.233c0.815-0.42,1.588-0.83,2.317-1.232c0.729-0.4,1.347-0.75,1.854-1.047
					c0.111-0.062,0.226-0.114,0.343-0.158c0.117-0.043,0.225-0.064,0.324-0.064c0.223,0,0.408,0.074,0.556,0.223
					c0.148,0.148,0.223,0.346,0.223,0.594c0,0.283-0.121,0.608-0.362,0.973c-0.241,0.365-0.646,0.744-1.214,1.141
					c-0.433,0.271-0.918,0.577-1.455,0.917c-0.538,0.34-1.1,0.692-1.687,1.057c-0.587,0.364-1.18,0.72-1.78,1.065
					c-0.599,0.346-1.177,0.655-1.733,0.928c-0.556,0.271-1.079,0.49-1.566,0.657c-0.488,0.167-0.912,0.251-1.269,0.251
					c-0.853,0-1.493-0.205-1.919-0.612c-0.426-0.407-0.639-0.933-0.639-1.575c0-0.1,0.006-0.174,0.019-0.223
					c0.086-0.544,0.247-1.068,0.482-1.576c0.234-0.506,0.5-0.988,0.797-1.445c0.296-0.457,0.606-0.893,0.927-1.307
					c0.321-0.414,0.615-0.804,0.88-1.168c0.266-0.365,0.485-0.701,0.658-1.01c0.173-0.31,0.26-0.594,0.26-0.854
					c0-0.062-0.013-0.123-0.037-0.186c-0.025-0.062-0.081-0.092-0.167-0.092c-0.148,0-0.393,0.055-0.732,0.166
					c-0.34,0.111-0.701,0.26-1.084,0.445c-0.383,0.186-0.748,0.398-1.094,0.639c-0.346,0.242-0.593,0.498-0.742,0.77
					c-0.198,0.347-0.426,0.785-0.686,1.316c-0.26,0.531-0.528,1.088-0.807,1.668c-0.278,0.582-0.547,1.156-0.806,1.725
					c-0.26,0.568-0.482,1.057-0.667,1.465c-0.148,0.357-0.343,0.68-0.584,0.963c-0.241,0.285-0.503,0.525-0.788,0.723
					c-0.285,0.198-0.575,0.354-0.871,0.464c-0.297,0.111-0.569,0.167-0.816,0.167c-0.284,0-0.51-0.074-0.676-0.223
					c-0.167-0.148-0.25-0.389-0.25-0.723c0-0.136,0.021-0.306,0.065-0.51c0.043-0.204,0.133-0.43,0.269-0.677
					c0.223-0.42,0.448-0.877,0.677-1.372c0.229-0.494,0.491-1.059,0.788-1.695c0.297-0.637,0.64-1.365,1.029-2.188
					c0.39-0.822,0.85-1.771,1.381-2.846c-0.173-0.148-0.318-0.33-0.436-0.547c-0.118-0.216-0.176-0.484-0.176-0.807
					c0-0.296,0.062-0.553,0.186-0.769c0.123-0.216,0.29-0.393,0.5-0.528c0.21-0.137,0.454-0.238,0.732-0.307
					c0.278-0.067,0.571-0.102,0.88-0.102c0.321,0,0.643,0.027,0.964,0.084c0.321,0.055,0.609,0.139,0.862,0.25
					c0.253,0.111,0.46,0.247,0.621,0.408c0.161,0.16,0.241,0.346,0.241,0.556c0,0.037-0.012,0.087-0.037,0.148
					s-0.053,0.13-0.083,0.204c-0.031,0.074-0.059,0.142-0.083,0.203c-0.025,0.062-0.037,0.111-0.037,0.148
					c0,0.025,0.006,0.037,0.019,0.037h0.019L60.365,146.34z"/>
				<path class="st3" d="M89.69,151.809c-0.222,0.21-0.519,0.501-0.89,0.871c-0.371,0.37-0.795,0.772-1.27,1.204
					c-0.476,0.434-0.982,0.869-1.52,1.308c-0.538,0.439-1.088,0.837-1.65,1.196c-0.562,0.357-1.116,0.651-1.659,0.88
					c-0.544,0.229-1.057,0.343-1.539,0.343c-0.433,0-0.803-0.093-1.112-0.277c-0.309-0.186-0.565-0.428-0.769-0.724
					c-0.204-0.296-0.355-0.634-0.454-1.011c-0.099-0.377-0.148-0.762-0.148-1.158c0-0.26,0.019-0.516,0.056-0.77
					c0.037-0.253,0.099-0.49,0.186-0.713c-0.383,0.519-0.819,1.053-1.307,1.604c-0.488,0.55-1.013,1.051-1.576,1.501
					c-0.562,0.451-1.149,0.822-1.761,1.112c-0.612,0.29-1.233,0.436-1.863,0.436c-0.321,0-0.695-0.064-1.121-0.195
					c-0.427-0.129-0.831-0.342-1.214-0.639c-0.383-0.297-0.705-0.68-0.964-1.149c-0.26-0.47-0.389-1.044-0.389-1.724
					c0-0.507,0.077-1.112,0.231-1.816c0.154-0.705,0.389-1.438,0.705-2.197c0.315-0.76,0.716-1.511,1.205-2.252
					c0.488-0.742,1.066-1.406,1.733-1.992c0.668-0.588,1.427-1.063,2.28-1.428c0.853-0.365,1.804-0.547,2.854-0.547
					c0.544,0,1.02,0.068,1.427,0.203c0.408,0.137,0.754,0.285,1.038,0.445c0.321,0.198,0.605,0.414,0.853,0.648
					c0.21-0.111,0.426-0.215,0.649-0.314c0.186-0.086,0.38-0.164,0.584-0.232c0.204-0.067,0.38-0.102,0.528-0.102
					c0.469,0,0.853,0.13,1.149,0.39c0.296,0.259,0.445,0.544,0.445,0.852c0,0.086-0.006,0.154-0.019,0.204
					c-0.062,0.235-0.158,0.531-0.288,0.89c-0.129,0.358-0.275,0.757-0.436,1.195c-0.161,0.439-0.324,0.896-0.491,1.372
					s-0.318,0.942-0.454,1.399c-0.136,0.457-0.248,0.887-0.334,1.288c-0.087,0.401-0.13,0.745-0.13,1.028
					c0,0.371,0.062,0.678,0.186,0.918c0.123,0.241,0.333,0.361,0.63,0.361c0.186,0,0.405-0.059,0.658-0.176
					c0.253-0.117,0.528-0.275,0.825-0.473c0.297-0.197,0.603-0.424,0.918-0.677c0.315-0.253,0.621-0.51,0.917-0.769
					c0.692-0.618,1.427-1.322,2.206-2.113c0.198-0.16,0.39-0.241,0.575-0.241c0.247,0,0.454,0.12,0.621,0.361
					c0.167,0.241,0.25,0.51,0.25,0.806C90.042,151.283,89.925,151.574,89.69,151.809z M76.844,147.027
					c-0.581,0-1.144,0.148-1.687,0.444c-0.544,0.297-1.026,0.687-1.446,1.168c-0.42,0.482-0.754,1.023-1.001,1.622
					c-0.247,0.6-0.371,1.201-0.371,1.807c0,0.248,0.015,0.504,0.046,0.77c0.031,0.266,0.102,0.51,0.213,0.732
					s0.269,0.408,0.473,0.557c0.204,0.148,0.479,0.223,0.825,0.223c0.272,0,0.59-0.121,0.955-0.362
					c0.364-0.241,0.741-0.55,1.13-0.927c0.39-0.377,0.77-0.791,1.14-1.242c0.371-0.451,0.705-0.893,1.001-1.325
					c0.297-0.433,0.538-0.821,0.723-1.168c0.185-0.346,0.278-0.599,0.278-0.76c0-0.234-0.081-0.448-0.241-0.64
					c-0.161-0.191-0.359-0.355-0.593-0.491c-0.235-0.136-0.485-0.237-0.751-0.306C77.273,147.06,77.041,147.027,76.844,147.027z"/>
				<path class="st3" d="M93.639,156.517c0-0.594,0.132-1.198,0.398-1.816c0.266-0.617,0.603-1.254,1.01-1.909
					c0.408-0.655,0.853-1.319,1.334-1.993s0.939-1.362,1.372-2.066c0.124-0.197,0.223-0.387,0.297-0.565
					c0.074-0.179,0.111-0.362,0.111-0.547c0-0.198-0.056-0.361-0.167-0.491c-0.111-0.13-0.272-0.195-0.482-0.195
					c-0.507,0-0.995,0.109-1.464,0.325c-0.47,0.216-0.921,0.501-1.354,0.852c-0.433,0.352-0.843,0.757-1.232,1.214
					c-0.389,0.458-0.754,0.931-1.094,1.419c-0.34,0.488-0.658,0.973-0.955,1.455c-0.296,0.481-0.568,0.92-0.815,1.315
					c-0.223,0.407-0.427,0.853-0.612,1.335c-0.186,0.482-0.387,0.927-0.603,1.334c-0.216,0.408-0.46,0.751-0.732,1.029
					c-0.272,0.277-0.611,0.417-1.019,0.417c-0.445,0-0.797-0.142-1.057-0.427c-0.259-0.283-0.389-0.623-0.389-1.019
					c0-0.223,0.081-0.568,0.241-1.037c0.16-0.471,0.368-1.017,0.621-1.641c0.253-0.624,0.54-1.289,0.862-1.993
					c0.321-0.704,0.64-1.402,0.955-2.095c0.315-0.691,0.612-1.344,0.89-1.955c0.278-0.612,0.51-1.135,0.695-1.566
					c0.222-0.531,0.516-0.928,0.88-1.186c0.364-0.26,0.726-0.39,1.085-0.39c0.309,0,0.584,0.115,0.825,0.344
					c0.241,0.229,0.362,0.558,0.362,0.991c0,0.321-0.074,0.673-0.223,1.057c0.333-0.31,0.692-0.643,1.075-1.001
					c0.383-0.358,0.8-0.689,1.251-0.992c0.451-0.303,0.955-0.553,1.511-0.75c0.556-0.197,1.18-0.297,1.873-0.297
					c0.346,0,0.673,0.043,0.982,0.129c0.309,0.088,0.584,0.223,0.825,0.408c0.241,0.186,0.438,0.427,0.593,0.723
					c0.154,0.297,0.244,0.656,0.269,1.076c0.284-0.285,0.593-0.566,0.927-0.844c0.334-0.278,0.695-0.528,1.084-0.751
					c0.39-0.222,0.812-0.401,1.27-0.538c0.457-0.135,0.964-0.203,1.521-0.203c0.407,0,0.797,0.043,1.167,0.129
					c0.371,0.088,0.701,0.232,0.992,0.437c0.29,0.204,0.519,0.466,0.686,0.788c0.167,0.32,0.25,0.717,0.25,1.186
					c0,0.742-0.17,1.446-0.51,2.113c-0.34,0.668-0.738,1.279-1.195,1.836c-0.148,0.185-0.346,0.42-0.593,0.703
					c-0.248,0.285-0.488,0.588-0.723,0.909c-0.235,0.321-0.44,0.651-0.612,0.991c-0.173,0.34-0.259,0.658-0.259,0.955
					c0,0.271,0.083,0.445,0.25,0.52c0.167,0.074,0.386,0.111,0.659,0.111c0.519,0,1.081-0.155,1.687-0.465
					c0.605-0.309,1.195-0.682,1.77-1.121c0.575-0.438,1.112-0.896,1.613-1.371c0.5-0.477,0.898-0.875,1.195-1.195
					c0.074-0.087,0.16-0.148,0.26-0.186c0.099-0.037,0.197-0.057,0.297-0.057c0.222,0,0.423,0.1,0.603,0.297
					c0.179,0.198,0.269,0.457,0.269,0.779c0,0.247-0.074,0.519-0.223,0.814c-0.148,0.297-0.401,0.588-0.76,0.872
					c-0.668,0.643-1.351,1.257-2.049,1.845c-0.698,0.586-1.402,1.105-2.113,1.557c-0.71,0.451-1.421,0.812-2.132,1.084
					c-0.71,0.272-1.417,0.408-2.122,0.408c-0.915,0-1.653-0.217-2.215-0.648c-0.562-0.433-0.843-1.119-0.843-2.059
					c0-0.617,0.117-1.197,0.352-1.742c0.235-0.543,0.525-1.065,0.872-1.566c0.346-0.5,0.71-0.984,1.094-1.455
					c0.383-0.469,0.716-0.938,1.001-1.408c0.123-0.197,0.222-0.387,0.296-0.565c0.074-0.179,0.111-0.362,0.111-0.547
					c0-0.198-0.056-0.361-0.167-0.491s-0.272-0.195-0.482-0.195c-0.507,0-0.995,0.109-1.464,0.325
					c-0.47,0.216-0.921,0.501-1.353,0.852c-0.433,0.352-0.844,0.757-1.233,1.214c-0.389,0.458-0.754,0.931-1.094,1.419
					c-0.34,0.488-0.658,0.973-0.955,1.455c-0.296,0.481-0.568,0.92-0.815,1.315c-0.223,0.407-0.426,0.853-0.612,1.335
					c-0.186,0.482-0.386,0.927-0.603,1.334c-0.216,0.408-0.461,0.751-0.732,1.029c-0.272,0.277-0.612,0.417-1.02,0.417
					c-0.148,0-0.309-0.028-0.482-0.083c-0.173-0.057-0.331-0.133-0.473-0.232c-0.143-0.099-0.26-0.216-0.353-0.352
					C93.703,156.826,93.65,156.677,93.639,156.517z"/>
				<path class="st3" d="M120.406,143.653c1.025,0,1.792,0.247,2.299,0.741c0.506,0.494,0.76,1.18,0.76,2.058
					c0,0.519-0.137,1.063-0.408,1.632c-0.271,0.568-0.741,1.146-1.408,1.732c-0.668,0.588-1.561,1.186-2.679,1.799
					c-1.119,0.611-2.519,1.227-4.199,1.844c0.062,0.359,0.254,0.64,0.575,0.844c0.321,0.203,0.747,0.306,1.279,0.306
					c0.567,0,1.177-0.083,1.825-0.25c0.649-0.167,1.291-0.38,1.928-0.64c0.637-0.26,1.258-0.541,1.863-0.844s1.152-0.59,1.641-0.861
					c0.488-0.271,0.895-0.507,1.224-0.705c0.327-0.197,0.547-0.32,0.658-0.371c0.11-0.074,0.213-0.117,0.306-0.129
					c0.093-0.012,0.176-0.019,0.25-0.019c0.148,0,0.272,0.034,0.371,0.102c0.099,0.068,0.182,0.148,0.25,0.241
					c0.067,0.093,0.114,0.191,0.139,0.297c0.024,0.105,0.037,0.194,0.037,0.268c0,0.111-0.013,0.244-0.037,0.398
					c-0.024,0.155-0.117,0.331-0.277,0.528c-0.062,0.062-0.269,0.229-0.621,0.5c-0.353,0.273-0.807,0.594-1.363,0.965
					c-0.556,0.37-1.201,0.763-1.937,1.177c-0.735,0.414-1.514,0.794-2.336,1.14c-0.822,0.346-1.678,0.634-2.567,0.862
					c-0.89,0.229-1.768,0.343-2.632,0.343c-0.741,0-1.399-0.143-1.975-0.426c-0.574-0.285-1.062-0.668-1.464-1.15
					c-0.402-0.481-0.708-1.037-0.918-1.668c-0.21-0.63-0.315-1.291-0.315-1.983c0-0.53,0.105-1.114,0.315-1.751
					c0.21-0.637,0.513-1.276,0.908-1.919c0.396-0.643,0.881-1.27,1.455-1.882c0.575-0.611,1.221-1.152,1.938-1.621
					c0.717-0.471,1.504-0.848,2.363-1.131C118.511,143.794,119.429,143.653,120.406,143.653z M119.738,146.21
					c-0.062-0.012-0.117-0.018-0.166-0.018c-0.05,0-0.105,0-0.167,0c-0.47,0-0.908,0.092-1.316,0.277
					c-0.407,0.186-0.781,0.43-1.121,0.732c-0.34,0.303-0.642,0.646-0.908,1.029c-0.267,0.383-0.504,0.763-0.714,1.139
					c-0.21,0.378-0.387,0.739-0.528,1.085c-0.143,0.347-0.25,0.637-0.324,0.872c0.432-0.223,0.88-0.476,1.344-0.761
					c0.463-0.284,0.898-0.556,1.307-0.815c0.408-0.26,0.763-0.494,1.066-0.705c0.302-0.209,0.516-0.352,0.639-0.426
					c0.557-0.346,0.939-0.67,1.149-0.973c0.21-0.303,0.315-0.566,0.315-0.789c0-0.185-0.059-0.333-0.176-0.444
					C120.019,146.303,119.886,146.236,119.738,146.21z"/>
				<path class="st3" d="M128.246,151.79c-0.136,0.284-0.268,0.615-0.398,0.992c-0.13,0.377-0.194,0.713-0.194,1.01
					c0,0.186,0.037,0.334,0.11,0.445c0.074,0.111,0.217,0.166,0.427,0.166c0.26,0,0.584-0.076,0.974-0.231
					c0.389-0.154,0.809-0.358,1.26-0.612c0.451-0.252,0.921-0.543,1.409-0.871c0.488-0.326,0.973-0.667,1.455-1.02
					c0.482-0.352,0.942-0.704,1.381-1.057c0.438-0.352,0.831-0.676,1.177-0.973c0.1-0.086,0.217-0.148,0.353-0.185
					c0.136-0.037,0.253-0.056,0.352-0.056c0.247,0,0.451,0.087,0.611,0.26c0.16,0.173,0.241,0.401,0.241,0.686
					c0,0.26-0.087,0.55-0.26,0.872c-0.173,0.32-0.476,0.637-0.908,0.945c-0.791,0.728-1.588,1.421-2.392,2.076
					c-0.803,0.654-1.602,1.232-2.4,1.732c-0.797,0.5-1.588,0.899-2.372,1.195c-0.785,0.297-1.548,0.445-2.29,0.445
					c-0.507,0-0.93-0.068-1.27-0.204c-0.34-0.136-0.611-0.321-0.816-0.556c-0.204-0.234-0.35-0.513-0.435-0.834
					c-0.087-0.322-0.13-0.661-0.13-1.02c0-0.605,0.09-1.227,0.269-1.863c0.18-0.637,0.393-1.221,0.64-1.752
					c0.433-0.964,0.871-1.922,1.316-2.873c0.444-0.951,0.853-1.822,1.224-2.613l5.616-11.957c0.223-0.481,0.522-0.821,0.899-1.02
					c0.377-0.197,0.757-0.296,1.14-0.296c0.383,0,0.732,0.104,1.048,0.315c0.314,0.21,0.473,0.549,0.473,1.02
					c0,0.222-0.053,0.457-0.158,0.704c-0.104,0.247-0.238,0.513-0.398,0.797c-0.309,0.581-0.677,1.292-1.103,2.132
					c-0.427,0.84-0.884,1.755-1.372,2.743c-0.488,0.989-0.988,2.018-1.501,3.087c-0.514,1.068-1.014,2.109-1.502,3.123
					c-0.488,1.014-0.945,1.975-1.372,2.883C128.923,150.335,128.555,151.122,128.246,151.79z"/>
				<path class="st3" d="M24.191,192.831c0.111-1.062,0.247-2.293,0.408-3.689c0.16-1.396,0.334-2.858,0.519-4.383
					c0.185-1.527,0.374-3.062,0.566-4.607c0.191-1.545,0.38-2.99,0.565-4.338c-0.655,1.262-1.316,2.527-1.983,3.801
					c-0.667,1.273-1.301,2.48-1.9,3.624c-0.6,1.144-1.149,2.178-1.65,3.105c-0.5,0.928-0.905,1.675-1.214,2.243
					c-0.285,0.384-0.569,0.748-0.853,1.094c-0.284,0.347-0.565,0.649-0.843,0.908c-0.278,0.26-0.553,0.467-0.825,0.621
					c-0.272,0.155-0.538,0.231-0.797,0.231c-0.346,0-0.621-0.074-0.825-0.223c-0.204-0.148-0.306-0.37-0.306-0.667
					c0-0.061,0.003-0.12,0.009-0.177c0.006-0.055,0.021-0.113,0.046-0.176c-0.074-1.754-0.129-3.524-0.167-5.311
					c-0.037-1.785-0.056-3.543-0.056-5.273c0-0.408,0-0.816,0-1.224s0.006-0.81,0.019-1.204c-0.495,1.111-1.032,2.268-1.613,3.466
					c-0.581,1.198-1.186,2.382-1.816,3.55c-0.63,1.168-1.279,2.293-1.946,3.373c-0.668,1.082-1.335,2.064-2.003,2.947
					c-0.667,0.885-1.325,1.639-1.974,2.262c-0.648,0.625-1.269,1.061-1.863,1.307c-0.519,0.211-0.97,0.361-1.353,0.455
					c-0.383,0.092-0.723,0.139-1.019,0.139c-0.445,0-0.776-0.09-0.992-0.27C0.108,194.237,0,194.017,0,193.758
					c0-0.31,0.13-0.63,0.39-0.964c0.259-0.334,0.624-0.594,1.093-0.779c0.568-0.222,1.189-0.713,1.863-1.473
					c0.673-0.76,1.369-1.684,2.085-2.771c0.716-1.088,1.439-2.299,2.168-3.633c0.729-1.336,1.437-2.689,2.122-4.061
					c0.686-1.371,1.332-2.715,1.937-4.031c0.606-1.316,1.143-2.506,1.613-3.568s0.855-1.949,1.159-2.66
					c0.303-0.711,0.491-1.152,0.565-1.325c0.173-0.383,0.414-0.661,0.723-0.835c0.309-0.172,0.624-0.259,0.945-0.259
					c0.445,0,0.754,0.12,0.927,0.361c0.173,0.241,0.259,0.671,0.259,1.288c0.099,0.779,0.182,1.512,0.25,2.197
					c0.067,0.685,0.126,1.391,0.176,2.113c0.049,0.723,0.083,1.501,0.102,2.336c0.018,0.834,0.028,1.795,0.028,2.882
					c0,0.778-0.016,1.638-0.046,2.577c-0.031,0.939-0.046,1.989-0.046,3.15c1.483-2.693,2.796-5.069,3.939-7.127
					c1.143-2.058,2.138-3.781,2.984-5.172c0.847-1.391,1.56-2.441,2.141-3.151c0.581-0.71,1.044-1.065,1.39-1.065h0.13
					c0.037,0,0.074-0.004,0.111-0.01c0.037-0.006,0.074-0.01,0.111-0.01c0.296,0,0.531,0.186,0.704,0.557
					c0.173,0.371,0.26,0.852,0.26,1.445c-0.05,0.606-0.124,1.36-0.223,2.262c-0.099,0.902-0.213,1.895-0.343,2.976
					c-0.13,1.081-0.269,2.222-0.417,3.42c-0.148,1.198-0.297,2.388-0.445,3.568c-0.149,1.181-0.288,2.326-0.417,3.438
					c-0.129,1.112-0.238,2.119-0.324,3.021c-0.025,0.16-0.037,0.324-0.037,0.491c0,0.167,0,0.337,0,0.51
					c0,0.321,0.006,0.645,0.019,0.974c0.012,0.327,0.019,0.652,0.019,0.973c0,0.371-0.019,0.744-0.056,1.121
					c-0.037,0.378-0.139,0.717-0.306,1.02c-0.167,0.304-0.43,0.551-0.788,0.742c-0.358,0.191-0.853,0.287-1.483,0.287
					c-0.333,0-0.6-0.127-0.797-0.38C24.289,193.941,24.191,193.486,24.191,192.831z"/>
				<path class="st3" d="M52.533,188.809c-0.222,0.21-0.519,0.501-0.89,0.871c-0.371,0.37-0.794,0.772-1.27,1.204
					c-0.476,0.434-0.982,0.869-1.519,1.308c-0.538,0.439-1.088,0.837-1.65,1.196c-0.562,0.357-1.116,0.651-1.659,0.88
					c-0.544,0.229-1.057,0.343-1.539,0.343c-0.433,0-0.803-0.093-1.112-0.277c-0.309-0.186-0.565-0.428-0.769-0.724
					c-0.204-0.296-0.355-0.634-0.454-1.011c-0.099-0.377-0.148-0.762-0.148-1.158c0-0.26,0.019-0.516,0.056-0.77
					c0.037-0.253,0.099-0.49,0.186-0.713c-0.383,0.519-0.819,1.053-1.307,1.604c-0.488,0.55-1.013,1.051-1.576,1.501
					c-0.562,0.451-1.149,0.822-1.761,1.112c-0.612,0.29-1.233,0.436-1.863,0.436c-0.321,0-0.695-0.064-1.121-0.195
					c-0.427-0.129-0.832-0.342-1.214-0.639c-0.383-0.297-0.705-0.68-0.964-1.149c-0.26-0.47-0.389-1.044-0.389-1.724
					c0-0.507,0.077-1.112,0.231-1.816c0.154-0.705,0.389-1.438,0.705-2.197c0.315-0.76,0.716-1.511,1.205-2.252
					c0.488-0.742,1.066-1.406,1.733-1.992c0.667-0.588,1.427-1.063,2.28-1.428c0.853-0.365,1.804-0.547,2.854-0.547
					c0.543,0,1.02,0.068,1.427,0.203c0.408,0.137,0.754,0.285,1.038,0.445c0.321,0.198,0.605,0.414,0.853,0.648
					c0.21-0.111,0.426-0.215,0.649-0.314c0.186-0.086,0.38-0.164,0.584-0.232c0.204-0.067,0.38-0.102,0.528-0.102
					c0.469,0,0.852,0.13,1.149,0.39c0.296,0.259,0.445,0.544,0.445,0.852c0,0.086-0.006,0.154-0.019,0.204
					c-0.062,0.235-0.158,0.531-0.288,0.89c-0.129,0.358-0.275,0.757-0.436,1.195c-0.161,0.439-0.324,0.896-0.491,1.372
					s-0.318,0.942-0.454,1.399c-0.136,0.457-0.248,0.887-0.333,1.288c-0.087,0.401-0.13,0.745-0.13,1.028
					c0,0.371,0.062,0.678,0.186,0.918c0.123,0.241,0.333,0.361,0.63,0.361c0.185,0,0.405-0.059,0.658-0.176
					c0.253-0.117,0.528-0.275,0.825-0.473c0.297-0.197,0.603-0.424,0.918-0.677c0.315-0.253,0.621-0.51,0.917-0.769
					c0.692-0.618,1.427-1.322,2.206-2.113c0.198-0.16,0.39-0.241,0.575-0.241c0.247,0,0.454,0.12,0.621,0.361
					c0.167,0.241,0.25,0.51,0.25,0.806C52.886,188.283,52.768,188.574,52.533,188.809z M39.688,184.027
					c-0.581,0-1.144,0.148-1.687,0.444c-0.544,0.297-1.026,0.687-1.446,1.168c-0.42,0.482-0.754,1.023-1.001,1.622
					c-0.248,0.6-0.371,1.201-0.371,1.807c0,0.248,0.015,0.504,0.046,0.77c0.031,0.266,0.102,0.51,0.213,0.732
					c0.111,0.223,0.269,0.408,0.473,0.557c0.204,0.148,0.479,0.223,0.825,0.223c0.272,0,0.59-0.121,0.955-0.362
					c0.364-0.241,0.741-0.55,1.13-0.927c0.39-0.377,0.77-0.791,1.14-1.242c0.371-0.451,0.705-0.893,1.001-1.325
					c0.297-0.433,0.538-0.821,0.723-1.168c0.185-0.346,0.278-0.599,0.278-0.76c0-0.234-0.08-0.448-0.241-0.64
					c-0.161-0.191-0.359-0.355-0.593-0.491c-0.235-0.136-0.485-0.237-0.751-0.306C40.117,184.06,39.885,184.027,39.688,184.027z"/>
				<path class="st3" d="M61.06,182.376c0,0.383-0.043,0.807-0.129,1.27c-0.087,0.464-0.229,0.899-0.426,1.307
					c-0.198,0.408-0.452,0.748-0.76,1.02c-0.309,0.273-0.692,0.408-1.149,0.408c-0.247,0-0.405-0.037-0.473-0.111
					c-0.068-0.074-0.102-0.203-0.102-0.389c0-0.111,0.003-0.275,0.009-0.492c0.006-0.215,0.009-0.422,0.009-0.62
					c0-0.223-0.031-0.411-0.092-0.565c-0.062-0.154-0.216-0.232-0.463-0.232c-0.285,0-0.603,0.109-0.955,0.325
					c-0.352,0.216-0.704,0.497-1.056,0.843c-0.353,0.347-0.695,0.738-1.029,1.178c-0.334,0.438-0.634,0.883-0.899,1.334
					c-0.266,0.451-0.476,0.887-0.63,1.307c-0.155,0.421-0.232,0.779-0.232,1.076c0,0.432,0.151,0.771,0.454,1.02
					c0.303,0.247,0.714,0.37,1.233,0.37c0.556,0,1.149-0.093,1.779-0.278c0.63-0.186,1.257-0.42,1.881-0.704
					c0.624-0.284,1.226-0.593,1.808-0.927c0.581-0.334,1.109-0.651,1.585-0.955c0.476-0.303,0.874-0.562,1.195-0.777
					c0.321-0.217,0.531-0.35,0.63-0.399c0.198-0.099,0.383-0.147,0.556-0.147c0.148,0,0.275,0.033,0.38,0.102
					c0.105,0.068,0.188,0.148,0.25,0.24c0.062,0.094,0.105,0.192,0.13,0.297c0.024,0.105,0.037,0.195,0.037,0.27
					c0,0.111-0.012,0.244-0.037,0.398c-0.025,0.154-0.118,0.33-0.278,0.527c-0.062,0.074-0.263,0.264-0.603,0.566
					c-0.34,0.303-0.778,0.658-1.316,1.065c-0.538,0.407-1.156,0.843-1.854,1.307c-0.699,0.464-1.446,0.888-2.243,1.27
					c-0.797,0.383-1.622,0.701-2.475,0.954c-0.853,0.253-1.693,0.38-2.521,0.38c-0.63,0-1.189-0.1-1.678-0.297
					c-0.488-0.197-0.899-0.466-1.232-0.807c-0.334-0.34-0.587-0.738-0.76-1.195c-0.173-0.457-0.259-0.938-0.259-1.445
					c0-0.557,0.129-1.195,0.389-1.919c0.259-0.723,0.618-1.461,1.075-2.215c0.457-0.754,0.995-1.495,1.613-2.225
					c0.618-0.73,1.288-1.378,2.011-1.946c0.723-0.568,1.477-1.025,2.261-1.371c0.785-0.347,1.579-0.52,2.382-0.52
					c0.272,0,0.528,0.031,0.77,0.092c0.241,0.062,0.451,0.158,0.63,0.288c0.179,0.13,0.321,0.306,0.426,0.528
					C61.007,181.802,61.06,182.068,61.06,182.376z"/>
				<path class="st3" d="M73.016,182.376c0,0.383-0.044,0.807-0.129,1.27c-0.087,0.464-0.229,0.899-0.426,1.307
					c-0.198,0.408-0.452,0.748-0.76,1.02c-0.309,0.273-0.692,0.408-1.149,0.408c-0.247,0-0.405-0.037-0.473-0.111
					c-0.068-0.074-0.102-0.203-0.102-0.389c0-0.111,0.003-0.275,0.009-0.492c0.006-0.215,0.009-0.422,0.009-0.62
					c0-0.223-0.031-0.411-0.092-0.565c-0.062-0.154-0.216-0.232-0.463-0.232c-0.285,0-0.603,0.109-0.955,0.325
					c-0.352,0.216-0.704,0.497-1.056,0.843c-0.353,0.347-0.695,0.738-1.029,1.178c-0.334,0.438-0.634,0.883-0.899,1.334
					c-0.266,0.451-0.476,0.887-0.63,1.307c-0.155,0.421-0.232,0.779-0.232,1.076c0,0.432,0.151,0.771,0.454,1.02
					c0.303,0.247,0.714,0.37,1.233,0.37c0.556,0,1.149-0.093,1.779-0.278c0.63-0.186,1.257-0.42,1.881-0.704
					c0.624-0.284,1.227-0.593,1.808-0.927c0.581-0.334,1.109-0.651,1.585-0.955c0.476-0.303,0.874-0.562,1.195-0.777
					c0.321-0.217,0.531-0.35,0.63-0.399c0.198-0.099,0.383-0.147,0.556-0.147c0.148,0,0.275,0.033,0.38,0.102
					c0.105,0.068,0.188,0.148,0.251,0.24c0.062,0.094,0.105,0.192,0.13,0.297c0.024,0.105,0.037,0.195,0.037,0.27
					c0,0.111-0.012,0.244-0.037,0.398c-0.025,0.154-0.118,0.33-0.278,0.527c-0.062,0.074-0.263,0.264-0.603,0.566
					c-0.34,0.303-0.778,0.658-1.316,1.065c-0.538,0.407-1.156,0.843-1.854,1.307c-0.699,0.464-1.446,0.888-2.243,1.27
					c-0.797,0.383-1.622,0.701-2.475,0.954c-0.853,0.253-1.693,0.38-2.521,0.38c-0.63,0-1.189-0.1-1.678-0.297
					c-0.488-0.197-0.899-0.466-1.232-0.807c-0.334-0.34-0.587-0.738-0.76-1.195c-0.173-0.457-0.259-0.938-0.259-1.445
					c0-0.557,0.129-1.195,0.389-1.919c0.259-0.723,0.618-1.461,1.075-2.215c0.457-0.754,0.995-1.495,1.613-2.225
					c0.618-0.73,1.288-1.378,2.011-1.946c0.723-0.568,1.477-1.025,2.261-1.371c0.785-0.347,1.579-0.52,2.382-0.52
					c0.272,0,0.528,0.031,0.77,0.092c0.241,0.062,0.451,0.158,0.63,0.288c0.179,0.13,0.321,0.306,0.426,0.528
					C72.963,181.802,73.016,182.068,73.016,182.376z"/>
				<path class="st3" d="M76.946,182.283c0.21-0.346,0.451-0.593,0.723-0.741c0.271-0.148,0.55-0.223,0.834-0.223
					c0.47,0,0.874,0.152,1.214,0.454c0.34,0.304,0.51,0.689,0.51,1.159c-0.013,0.111-0.028,0.223-0.046,0.334
					c-0.019,0.11-0.059,0.222-0.121,0.333c-0.173,0.321-0.315,0.593-0.426,0.815c-0.111,0.223-0.213,0.43-0.306,0.621
					c-0.093,0.191-0.183,0.38-0.269,0.565c-0.086,0.186-0.192,0.407-0.315,0.667c-0.148,0.31-0.315,0.646-0.501,1.011
					c-0.185,0.364-0.362,0.738-0.528,1.121c-0.167,0.384-0.309,0.761-0.426,1.131c-0.118,0.37-0.176,0.711-0.176,1.02
					c0,0.333,0.084,0.554,0.251,0.658c0.166,0.104,0.404,0.157,0.713,0.157c0.346,0,0.708-0.074,1.085-0.223
					c0.377-0.148,0.757-0.34,1.14-0.574c0.383-0.234,0.76-0.504,1.13-0.807c0.371-0.303,0.72-0.608,1.047-0.918
					c0.328-0.309,0.63-0.605,0.909-0.889c0.278-0.285,0.51-0.538,0.695-0.76c0.247-0.235,0.494-0.354,0.742-0.354
					c0.222,0,0.404,0.1,0.547,0.297c0.142,0.198,0.213,0.451,0.213,0.76c0,0.285-0.071,0.588-0.213,0.909
					c-0.143,0.321-0.374,0.624-0.695,0.908c-0.63,0.643-1.273,1.257-1.928,1.845c-0.655,0.586-1.326,1.105-2.011,1.557
					c-0.686,0.451-1.375,0.812-2.067,1.084c-0.692,0.272-1.39,0.408-2.095,0.408c-1.001,0-1.788-0.256-2.363-0.77
					c-0.575-0.512-0.862-1.312-0.862-2.4c0-0.568,0.08-1.124,0.241-1.668c0.161-0.544,0.352-1.072,0.575-1.585
					c0.222-0.513,0.457-1.007,0.704-1.483c0.247-0.475,0.457-0.93,0.63-1.362c0.062-0.16,0.17-0.407,0.325-0.741
					c0.154-0.334,0.318-0.674,0.491-1.02C76.514,183.173,76.724,182.742,76.946,182.283z M78.985,178.113
					c0-0.283,0.053-0.577,0.158-0.881c0.105-0.302,0.262-0.576,0.473-0.824c0.21-0.247,0.473-0.451,0.788-0.611
					c0.315-0.16,0.689-0.241,1.122-0.241c0.717,0,1.217,0.14,1.501,0.417c0.284,0.277,0.426,0.627,0.426,1.047
					c0,0.235-0.046,0.494-0.139,0.779c-0.093,0.284-0.232,0.547-0.417,0.787c-0.186,0.241-0.427,0.442-0.723,0.604
					c-0.296,0.16-0.649,0.24-1.057,0.24c-0.766,0-1.304-0.121-1.613-0.361C79.195,178.826,79.022,178.509,78.985,178.113z"/>
				<path class="st3" d="M81.636,191.218c0.296-0.63,0.636-1.331,1.02-2.104c0.383-0.771,0.769-1.539,1.158-2.299
					c0.39-0.76,0.757-1.482,1.103-2.168c0.346-0.687,0.636-1.271,0.871-1.752l6.117-12.031c0.074-0.16,0.188-0.314,0.343-0.463
					c0.154-0.148,0.33-0.281,0.528-0.398c0.197-0.117,0.408-0.21,0.63-0.278c0.223-0.067,0.445-0.102,0.667-0.102
					c0.543,0,0.92,0.102,1.131,0.306c0.21,0.204,0.315,0.454,0.315,0.75c0,0.272-0.068,0.561-0.204,0.863
					c-0.136,0.303-0.291,0.584-0.463,0.843c-0.544,0.927-1.066,1.862-1.566,2.809c-0.501,0.945-1.001,1.897-1.502,2.854
					c-0.5,0.958-1.004,1.909-1.511,2.855c-0.507,0.945-1.038,1.882-1.594,2.809c0.346-0.334,0.713-0.68,1.103-1.038
					c0.389-0.358,0.812-0.686,1.27-0.982c0.457-0.297,0.958-0.541,1.502-0.732c0.543-0.191,1.149-0.287,1.816-0.287
					c0.396,0,0.772,0.037,1.131,0.111s0.673,0.194,0.945,0.361c0.272,0.166,0.488,0.396,0.649,0.686
					c0.161,0.291,0.241,0.646,0.241,1.066c0,0.556-0.084,1.065-0.251,1.529c-0.167,0.463-0.38,0.902-0.64,1.316
					c-0.259,0.414-0.544,0.809-0.853,1.186c-0.309,0.377-0.603,0.76-0.88,1.149c-0.278,0.39-0.519,0.794-0.723,1.214
					c-0.204,0.42-0.331,0.878-0.38,1.372c0,0.024-0.003,0.05-0.009,0.074c-0.006,0.024-0.009,0.05-0.009,0.074
					c0,0.247,0.083,0.401,0.25,0.464c0.167,0.061,0.38,0.092,0.639,0.092c0.334,0,0.692-0.064,1.075-0.194
					c0.383-0.13,0.77-0.303,1.159-0.519c0.389-0.217,0.778-0.461,1.168-0.732c0.389-0.271,0.76-0.55,1.112-0.834
					c0.353-0.285,0.677-0.56,0.973-0.825c0.297-0.266,0.55-0.497,0.76-0.695c0.111-0.099,0.229-0.173,0.352-0.223
					c0.124-0.049,0.241-0.073,0.352-0.073c0.223,0,0.411,0.082,0.565,0.25c0.155,0.166,0.232,0.393,0.232,0.676
					c0,0.26-0.09,0.557-0.269,0.891c-0.179,0.333-0.485,0.667-0.917,1c-0.68,0.594-1.372,1.162-2.076,1.706
					c-0.704,0.544-1.415,1.026-2.131,1.446c-0.717,0.42-1.431,0.754-2.141,1c-0.711,0.248-1.406,0.371-2.086,0.371
					c-0.877,0-1.582-0.201-2.113-0.602c-0.531-0.401-0.797-1.034-0.797-1.899c0-0.631,0.108-1.227,0.324-1.789
					s0.482-1.105,0.797-1.631c0.315-0.525,0.652-1.032,1.01-1.521c0.358-0.488,0.674-0.967,0.946-1.436
					c0.148-0.21,0.262-0.404,0.343-0.584c0.08-0.18,0.121-0.373,0.121-0.584c0-0.186-0.05-0.336-0.148-0.454
					c-0.099-0.117-0.253-0.177-0.463-0.177c-0.729,0-1.403,0.18-2.021,0.538c-0.618,0.358-1.187,0.815-1.706,1.372
					c-0.519,0.556-1.001,1.164-1.446,1.826c-0.445,0.66-0.859,1.294-1.242,1.899c-0.173,0.272-0.35,0.584-0.528,0.937
					c-0.18,0.352-0.365,0.713-0.556,1.084c-0.192,0.371-0.393,0.738-0.603,1.104c-0.21,0.364-0.43,0.688-0.658,0.973
					s-0.47,0.513-0.723,0.686c-0.253,0.174-0.516,0.26-0.788,0.26c-0.433,0-0.766-0.127-1.001-0.38
					c-0.234-0.253-0.352-0.571-0.352-0.954c0-0.285,0.049-0.584,0.149-0.899C81.253,192.062,81.413,191.675,81.636,191.218z"/>
				<path class="st3" d="M102.49,182.283c0.21-0.346,0.451-0.593,0.723-0.741c0.271-0.148,0.55-0.223,0.834-0.223
					c0.47,0,0.874,0.152,1.214,0.454c0.34,0.304,0.51,0.689,0.51,1.159c-0.013,0.111-0.028,0.223-0.046,0.334
					c-0.019,0.11-0.059,0.222-0.121,0.333c-0.173,0.321-0.315,0.593-0.426,0.815c-0.111,0.223-0.213,0.43-0.306,0.621
					c-0.093,0.191-0.183,0.38-0.269,0.565c-0.086,0.186-0.192,0.407-0.315,0.667c-0.148,0.31-0.315,0.646-0.5,1.011
					c-0.186,0.364-0.362,0.738-0.528,1.121c-0.167,0.384-0.309,0.761-0.426,1.131c-0.118,0.37-0.176,0.711-0.176,1.02
					c0,0.333,0.083,0.554,0.25,0.658c0.167,0.104,0.404,0.157,0.713,0.157c0.346,0,0.707-0.074,1.084-0.223
					c0.377-0.148,0.757-0.34,1.14-0.574c0.383-0.234,0.76-0.504,1.13-0.807c0.371-0.303,0.721-0.608,1.049-0.918
					c0.326-0.309,0.629-0.605,0.908-0.889c0.277-0.285,0.51-0.538,0.695-0.76c0.246-0.235,0.494-0.354,0.74-0.354
					c0.223,0,0.404,0.1,0.547,0.297c0.143,0.198,0.213,0.451,0.213,0.76c0,0.285-0.07,0.588-0.213,0.909s-0.373,0.624-0.695,0.908
					c-0.629,0.643-1.271,1.257-1.928,1.845c-0.654,0.586-1.325,1.105-2.011,1.557c-0.686,0.451-1.375,0.812-2.067,1.084
					c-0.692,0.272-1.39,0.408-2.095,0.408c-1.001,0-1.789-0.256-2.363-0.77c-0.575-0.512-0.862-1.312-0.862-2.4
					c0-0.568,0.081-1.124,0.241-1.668c0.161-0.544,0.352-1.072,0.575-1.585c0.222-0.513,0.457-1.007,0.704-1.483
					c0.247-0.475,0.457-0.93,0.63-1.362c0.062-0.16,0.17-0.407,0.325-0.741c0.154-0.334,0.318-0.674,0.491-1.02
					C102.057,183.173,102.267,182.742,102.49,182.283z M104.529,178.113c0-0.283,0.053-0.577,0.158-0.881
					c0.105-0.302,0.262-0.576,0.473-0.824c0.21-0.247,0.473-0.451,0.788-0.611c0.315-0.16,0.688-0.241,1.122-0.241
					c0.717,0,1.217,0.14,1.502,0.417c0.283,0.277,0.426,0.627,0.426,1.047c0,0.235-0.047,0.494-0.139,0.779
					c-0.094,0.284-0.232,0.547-0.418,0.787c-0.186,0.241-0.426,0.442-0.723,0.604c-0.297,0.16-0.648,0.24-1.057,0.24
					c-0.766,0-1.304-0.121-1.613-0.361C104.739,178.826,104.566,178.509,104.529,178.113z"/>
				<path class="st3" d="M129.127,188.809c-0.223,0.21-0.519,0.501-0.89,0.871c-0.371,0.37-0.794,0.772-1.27,1.204
					c-0.476,0.434-0.982,0.869-1.52,1.308c-0.537,0.439-1.087,0.837-1.649,1.196c-0.563,0.357-1.115,0.651-1.659,0.88
					c-0.544,0.229-1.057,0.343-1.538,0.343c-0.434,0-0.804-0.093-1.112-0.277c-0.309-0.186-0.565-0.428-0.769-0.724
					c-0.204-0.296-0.356-0.634-0.454-1.011c-0.1-0.377-0.148-0.762-0.148-1.158c0-0.26,0.019-0.516,0.056-0.77
					c0.037-0.253,0.099-0.49,0.186-0.713c-0.384,0.519-0.819,1.053-1.307,1.604c-0.488,0.55-1.014,1.051-1.576,1.501
					c-0.562,0.451-1.149,0.822-1.761,1.112c-0.612,0.29-1.232,0.436-1.863,0.436c-0.321,0-0.695-0.064-1.121-0.195
					c-0.427-0.129-0.831-0.342-1.214-0.639c-0.384-0.297-0.705-0.68-0.965-1.149c-0.259-0.47-0.389-1.044-0.389-1.724
					c0-0.507,0.077-1.112,0.231-1.816c0.154-0.705,0.39-1.438,0.704-2.197c0.315-0.76,0.717-1.511,1.205-2.252
					c0.488-0.742,1.066-1.406,1.733-1.992c0.667-0.588,1.428-1.063,2.28-1.428c0.853-0.365,1.804-0.547,2.854-0.547
					c0.544,0,1.02,0.068,1.428,0.203c0.407,0.137,0.753,0.285,1.038,0.445c0.32,0.198,0.604,0.414,0.853,0.648
					c0.21-0.111,0.426-0.215,0.648-0.314c0.186-0.086,0.38-0.164,0.584-0.232c0.204-0.067,0.38-0.102,0.528-0.102
					c0.47,0,0.853,0.13,1.149,0.39c0.296,0.259,0.444,0.544,0.444,0.852c0,0.086-0.006,0.154-0.019,0.204
					c-0.062,0.235-0.157,0.531-0.287,0.89c-0.13,0.358-0.275,0.757-0.436,1.195c-0.161,0.439-0.324,0.896-0.491,1.372
					s-0.318,0.942-0.454,1.399c-0.136,0.457-0.247,0.887-0.334,1.288c-0.086,0.401-0.13,0.745-0.13,1.028
					c0,0.371,0.063,0.678,0.186,0.918c0.124,0.241,0.334,0.361,0.631,0.361c0.185,0,0.404-0.059,0.658-0.176
					c0.253-0.117,0.527-0.275,0.824-0.473c0.297-0.197,0.603-0.424,0.918-0.677c0.314-0.253,0.621-0.51,0.917-0.769
					c0.692-0.618,1.428-1.322,2.206-2.113c0.197-0.16,0.39-0.241,0.575-0.241c0.247,0,0.454,0.12,0.621,0.361
					c0.166,0.241,0.25,0.51,0.25,0.806C129.48,188.283,129.362,188.574,129.127,188.809z M116.282,184.027
					c-0.581,0-1.144,0.148-1.688,0.444c-0.543,0.297-1.025,0.687-1.445,1.168c-0.42,0.482-0.754,1.023-1.001,1.622
					s-0.371,1.201-0.371,1.807c0,0.248,0.016,0.504,0.047,0.77c0.03,0.266,0.102,0.51,0.213,0.732
					c0.111,0.223,0.269,0.408,0.473,0.557c0.204,0.148,0.479,0.223,0.825,0.223c0.271,0,0.59-0.121,0.954-0.362
					c0.364-0.241,0.742-0.55,1.131-0.927c0.39-0.377,0.77-0.791,1.141-1.242c0.37-0.451,0.704-0.893,1.001-1.325
					c0.296-0.433,0.537-0.821,0.723-1.168c0.186-0.346,0.278-0.599,0.278-0.76c0-0.234-0.081-0.448-0.241-0.64
					c-0.161-0.191-0.358-0.355-0.594-0.491c-0.234-0.136-0.484-0.237-0.75-0.306C116.71,184.06,116.479,184.027,116.282,184.027z"/>
				<path class="st3" d="M132.724,183.841c-0.458,0.89-0.891,1.758-1.298,2.604c-0.408,0.848-0.791,1.629-1.149,2.346
					c-0.148,0.297-0.294,0.639-0.435,1.029c-0.143,0.389-0.213,0.731-0.213,1.028c0,0.173,0.04,0.309,0.12,0.407
					c0.08,0.1,0.213,0.148,0.398,0.148c0.26,0,0.587-0.076,0.982-0.231c0.396-0.154,0.822-0.358,1.279-0.612
					c0.457-0.252,0.938-0.543,1.445-0.871c0.507-0.326,1.004-0.667,1.493-1.02c0.487-0.352,0.954-0.704,1.399-1.057
					c0.444-0.352,0.84-0.676,1.186-0.973c0.198-0.136,0.384-0.204,0.557-0.204c0.21,0,0.383,0.093,0.519,0.278
					c0.136,0.186,0.204,0.42,0.204,0.704c0,0.284-0.068,0.575-0.204,0.872c-0.136,0.296-0.383,0.586-0.741,0.871
					c-0.804,0.728-1.616,1.421-2.438,2.076c-0.822,0.654-1.638,1.232-2.447,1.732s-1.609,0.899-2.4,1.195
					c-0.791,0.297-1.557,0.445-2.298,0.445c-0.495,0-0.908-0.064-1.242-0.195c-0.334-0.129-0.603-0.309-0.807-0.537
					c-0.204-0.229-0.35-0.494-0.435-0.797c-0.087-0.303-0.13-0.627-0.13-0.973c0-0.618,0.106-1.261,0.315-1.928
					c0.21-0.668,0.444-1.267,0.704-1.799c0.371-0.766,0.738-1.525,1.104-2.279c0.364-0.754,0.72-1.477,1.065-2.17h-0.797
					c-0.692,0-1.168-0.111-1.428-0.333c-0.26-0.223-0.389-0.476-0.389-0.761c0-0.123,0.04-0.274,0.12-0.453
					c0.08-0.18,0.197-0.346,0.353-0.501c0.154-0.154,0.343-0.287,0.565-0.398c0.222-0.111,0.476-0.167,0.76-0.167h2.002l3.911-7.767
					c0.247-0.47,0.553-0.807,0.918-1.011c0.364-0.203,0.744-0.306,1.14-0.306c0.371,0,0.71,0.099,1.02,0.297
					c0.309,0.198,0.463,0.525,0.463,0.982c0,0.235-0.052,0.473-0.157,0.714c-0.105,0.24-0.244,0.521-0.417,0.844
					c-0.111,0.209-0.247,0.46-0.408,0.75c-0.16,0.291-0.33,0.6-0.51,0.927c-0.179,0.327-0.364,0.671-0.556,1.028
					c-0.191,0.359-0.38,0.705-0.565,1.039c-0.42,0.791-0.865,1.625-1.335,2.502h6.043c0.297,0,0.568,0.016,0.816,0.047
					c0.247,0.031,0.46,0.092,0.639,0.186c0.18,0.092,0.318,0.219,0.418,0.379c0.099,0.161,0.147,0.377,0.147,0.649
					c0,0.136-0.021,0.272-0.064,0.407c-0.044,0.137-0.124,0.26-0.241,0.371c-0.117,0.111-0.278,0.204-0.481,0.278
					c-0.204,0.074-0.467,0.124-0.788,0.148L132.724,183.841z"/>
				<path class="st3" d="M145.05,180.671c0.47,0,0.974,0.062,1.511,0.186c0.538,0.123,1.035,0.334,1.492,0.63
					s0.837,0.688,1.14,1.177c0.303,0.488,0.455,1.092,0.455,1.808c0,0.37-0.05,0.794-0.148,1.271
					c-0.1,0.475-0.248,0.973-0.445,1.492c0.123,0.147,0.266,0.253,0.427,0.314c0.16,0.062,0.333,0.093,0.519,0.093
					c0.26,0,0.547-0.074,0.862-0.223c0.315-0.147,0.64-0.339,0.973-0.575c0.334-0.234,0.668-0.5,1.001-0.797
					c0.334-0.296,0.649-0.593,0.945-0.889c0.297-0.297,0.565-0.578,0.807-0.844c0.241-0.266,0.441-0.492,0.602-0.677
					c0.086-0.087,0.191-0.13,0.315-0.13c0.173,0,0.327,0.09,0.463,0.27c0.136,0.179,0.204,0.429,0.204,0.75
					c0,0.321-0.096,0.692-0.287,1.112c-0.191,0.421-0.547,0.858-1.066,1.316c-0.296,0.322-0.636,0.693-1.02,1.113
					c-0.383,0.42-0.791,0.814-1.223,1.186c-0.433,0.371-0.884,0.686-1.354,0.945s-0.939,0.39-1.409,0.39
					c-0.321,0-0.633-0.05-0.936-0.148c-0.303-0.099-0.609-0.259-0.918-0.481c-0.444,0.691-0.951,1.322-1.52,1.891
					c-0.568,0.568-1.202,1.057-1.9,1.465c-0.698,0.407-1.452,0.726-2.262,0.954c-0.81,0.229-1.671,0.343-2.586,0.343
					c-0.346,0-0.747-0.068-1.204-0.204c-0.458-0.136-0.893-0.361-1.308-0.677c-0.414-0.314-0.763-0.726-1.047-1.232
					c-0.284-0.506-0.427-1.124-0.427-1.854c0-0.494,0.08-1.088,0.241-1.779c0.16-0.692,0.404-1.406,0.732-2.141
					c0.327-0.736,0.741-1.465,1.242-2.188c0.5-0.724,1.097-1.372,1.788-1.947c0.692-0.574,1.483-1.037,2.373-1.39
					C142.974,180.847,143.962,180.671,145.05,180.671z M144.086,183.933c-0.581,0-1.14,0.146-1.678,0.435
					c-0.537,0.291-1.014,0.674-1.427,1.15c-0.415,0.476-0.745,1.014-0.992,1.612c-0.247,0.6-0.371,1.214-0.371,1.845
					c0,0.234,0.019,0.49,0.056,0.77c0.037,0.277,0.114,0.537,0.232,0.777c0.117,0.242,0.287,0.442,0.51,0.604
					c0.222,0.16,0.518,0.24,0.89,0.24c0.568,0,1.121-0.15,1.659-0.454c0.537-0.302,1.016-0.698,1.436-1.186
					c0.42-0.488,0.753-1.041,1.001-1.658c0.247-0.618,0.37-1.242,0.37-1.873c0-0.246-0.016-0.503-0.046-0.77
					c-0.031-0.266-0.105-0.51-0.223-0.731c-0.117-0.223-0.287-0.405-0.51-0.547C144.772,184.005,144.469,183.933,144.086,183.933z"
					/>
			</g>
		</g>
	</g>
	<g>
		<polygon class="st1" points="32.443,208.712 35.353,214.608 41.86,215.553 37.151,220.143 38.263,226.624 32.443,223.564 
			26.623,226.624 27.734,220.143 23.026,215.553 29.533,214.608 		"/>
		<polygon class="st6" points="62.206,208.712 65.116,214.608 71.623,215.553 66.914,220.143 68.026,226.624 62.206,223.564 
			56.386,226.624 57.497,220.143 52.789,215.553 59.296,214.608 		"/>
		<polygon class="st0" points="92.886,208.712 95.796,214.608 102.303,215.553 97.594,220.143 98.706,226.624 92.886,223.564 
			87.066,226.624 88.177,220.143 83.469,215.553 89.976,214.608 		"/>
		<polygon class="st2" points="123.622,208.712 126.532,214.608 133.039,215.553 128.331,220.143 129.442,226.624 123.622,223.564 
			117.802,226.624 118.914,220.143 114.205,215.553 120.712,214.608 		"/>
	</g>
</g>
</svg>