<!-- Generator: Adobe Illustrator 19.2.1, SVG Export Plug-In  -->
<svg version="1.1"
	 xmlns="http://www.w3.org/2000/svg" xmlns:xlink="http://www.w3.org/1999/xlink" xmlns:a="http://ns.adobe.com/AdobeSVGViewerExtensions/3.0/"
	 x="0px" y="0px" width="185.423px" height="198.944px" viewBox="0 0 185.423 198.944"
	 style="enable-background:new 0 0 185.423 198.944;" xml:space="preserve">
<style type="text/css">
	.st0{fill:#E4DCCF;}
	.st1{fill:#754D38;}
	.st2{fill:#FFF5E0;}
	.st3{fill:#FFFFFF;}
	.st4{opacity:0.1;}
	.st5{fill:#FAEBCD;}
</style>
<defs>
</defs>
<g>
	<g>
		<g>
			<g>
				<rect x="13.799" y="112.03" class="st0" width="140.415" height="5.582"/>
				<g>
					<path class="st0" d="M82.715,11.427H7.816c0,0,0.33,53.635,20.662,73.966c16.441,16.441,43.428,18.014,53.159,18.014
						c0.971,0,1.77-0.016,2.37-0.034c0.599,0.018,1.399,0.034,2.37,0.034c9.729,0,36.717-1.572,53.159-18.014
						c20.332-20.332,20.662-73.966,20.662-73.966H85.298H82.715z M135.457,81.316C120.309,96.464,94.06,97.641,86.376,97.641
						c-0.899,0-1.64-0.014-2.195-0.031l-0.174-0.005l-0.174,0.005c-0.556,0.017-1.296,0.031-2.196,0.031
						c-7.684,0-33.933-1.177-49.081-16.325C17.863,66.623,14.54,31.173,13.795,17.194h68.919h2.583h68.954
						C153.376,34.507,149.022,67.751,135.457,81.316z"/>
					<rect x="61.21" y="100.601" class="st0" width="45.591" height="7.286"/>
					<path class="st0" d="M175.636,22.772c-8.299-5.295-18.462-1.928-18.891-1.783l1.851,5.462
						c0.079-0.028,8.032-2.614,13.968,1.201c3.858,2.479,6.188,7.24,6.927,14.152c1.326,12.405-5.302,18.279-9.371,20.675
						c-6.406,3.774-15.172,4.098-19.955,0.738l-3.315,4.719c3.233,2.271,7.467,3.4,11.937,3.4c4.8,0,9.871-1.302,14.26-3.888
						c8.958-5.278,13.397-14.848,12.178-26.257C184.289,32.433,181.062,26.235,175.636,22.772z"/>
				</g>
			</g>
			<path class="st1" d="M82.715,17.194H13.795c0.745,13.979,4.067,49.429,18.76,64.122c15.148,15.148,41.397,16.325,49.081,16.325
				c0.9,0,1.64-0.014,2.196-0.031l0.174-0.005l0.174,0.005c0.555,0.017,1.296,0.031,2.195,0.031c7.684,0,33.933-1.177,49.081-16.325
				c13.565-13.565,17.919-46.809,18.795-64.122H85.298H82.715z"/>
			<path class="st2" d="M82.715,17.194H13.795c0.513,9.623,2.248,29.42,8.072,45.617h124.182
				c5.455-15.206,7.615-33.997,8.203-45.617H85.298H82.715z"/>
			<path class="st3" d="M143.298,2.889c0,0-112.252,0-120.047,0s-9.453,8.474-9.453,8.474h140.415
				C154.214,3.317,143.298,2.889,143.298,2.889z"/>
			<g>
				<circle class="st1" cx="61.739" cy="2.889" r="1.538"/>
				<circle class="st1" cx="76.587" cy="2.889" r="1.538"/>
				<circle class="st1" cx="111.26" cy="2.889" r="1.538"/>
				<circle class="st1" cx="102.486" cy="1.538" r="1.538"/>
				<circle class="st1" cx="84.957" cy="4.241" r="1.538"/>
				<circle class="st1" cx="52.052" cy="2.703" r="1.538"/>
				<circle class="st1" cx="44.978" cy="4.241" r="1.538"/>
				<circle class="st1" cx="121.86" cy="3.075" r="1.538"/>
				<circle class="st1" cx="33.908" cy="2.889" r="1.538"/>
				<circle class="st1" cx="131.086" cy="2.703" r="1.538"/>
				<circle class="st1" cx="69.12" cy="1.538" r="1.538"/>
				<circle class="st1" cx="93.875" cy="2.889" r="1.352"/>
			</g>
			<path class="st3" d="M82.715,17.194H13.795c0.294,5.518,0.995,14.385,2.633,23.997h135.117
				c1.573-8.978,2.381-17.581,2.706-23.997H85.298H82.715z"/>
			<g>
				<g>
					<path class="st3" d="M22.578,138.622c0,0.334-0.053,0.735-0.158,1.205c-0.104,0.47-0.256,0.958-0.454,1.464
						c-0.197,0.507-0.436,1.01-0.713,1.511c-0.278,0.501-0.597,0.952-0.955,1.353c-0.358,0.402-0.748,0.726-1.168,0.973
						c-0.42,0.248-0.871,0.371-1.353,0.371c-0.11,0-0.256-0.009-0.436-0.028c-0.179-0.019-0.358-0.062-0.537-0.13
						c-0.18-0.068-0.334-0.17-0.464-0.306c-0.129-0.136-0.194-0.316-0.194-0.538c0-0.148,0.04-0.321,0.12-0.519
						c0.081-0.198,0.226-0.426,0.437-0.686c0.222-0.247,0.463-0.54,0.723-0.88c0.26-0.34,0.494-0.695,0.704-1.066
						c0.21-0.371,0.386-0.735,0.528-1.094c0.142-0.358,0.213-0.679,0.213-0.964c0-0.358-0.083-0.645-0.25-0.862
						c-0.167-0.216-0.454-0.325-0.862-0.325c-0.531,0-1.13,0.173-1.798,0.519c-0.667,0.346-1.365,0.822-2.095,1.428
						c-0.728,0.605-1.471,1.313-2.224,2.122c-0.754,0.81-1.483,1.675-2.188,2.595c-0.705,0.921-1.369,1.879-1.993,2.873
						c-0.624,0.995-1.168,1.978-1.631,2.948c-0.464,0.97-0.828,1.903-1.094,2.799c-0.266,0.896-0.399,1.708-0.399,2.438
						c0,0.902,0.241,1.625,0.723,2.169c0.482,0.544,1.279,0.815,2.392,0.815c0.518,0,1.291-0.201,2.316-0.602
						c1.026-0.402,1.882-0.803,2.567-1.205c0.687-0.401,1.378-0.846,2.076-1.335c0.698-0.488,1.362-0.958,1.993-1.409
						c0.63-0.451,1.205-0.858,1.724-1.223c0.52-0.364,0.945-0.621,1.279-0.77c0.062-0.049,0.136-0.074,0.223-0.074
						c0.185,0,0.312,0.152,0.38,0.455c0.067,0.303,0.101,0.645,0.101,1.029c0,0.21-0.027,0.466-0.083,0.769
						c-0.056,0.303-0.232,0.652-0.528,1.047c-0.137,0.161-0.39,0.433-0.76,0.815c-0.371,0.383-0.835,0.816-1.391,1.298
						c-0.557,0.482-1.192,0.982-1.909,1.501c-0.717,0.519-1.492,0.995-2.326,1.427c-0.835,0.433-1.91,0.859-3.226,1.279
						c-1.316,0.42-2.463,0.63-3.438,0.63c-1.149,0-2.132-0.139-2.947-0.417c-0.816-0.278-1.483-0.664-2.002-1.159
						c-0.52-0.494-0.899-1.084-1.141-1.77C0.12,158.411,0,157.66,0,156.844c0-1.013,0.154-2.101,0.464-3.262
						c0.309-1.162,0.738-2.342,1.288-3.541c0.55-1.199,1.205-2.397,1.965-3.596c0.76-1.199,1.594-2.345,2.502-3.438
						c0.909-1.094,1.876-2.11,2.901-3.049c1.025-0.939,2.076-1.755,3.151-2.447c1.075-0.692,2.156-1.236,3.244-1.631
						c1.087-0.396,2.156-0.593,3.207-0.593c0.519,0,1.013,0.059,1.482,0.176c0.47,0.117,0.881,0.306,1.232,0.565
						c0.353,0.26,0.631,0.603,0.835,1.029C22.476,137.483,22.578,138.005,22.578,138.622z"/>
					<path class="st3" d="M38.668,156.696c-0.223,0.21-0.519,0.501-0.89,0.871c-0.371,0.371-0.794,0.772-1.27,1.205
						c-0.477,0.433-0.982,0.869-1.521,1.307c-0.537,0.439-1.087,0.837-1.649,1.196c-0.562,0.358-1.115,0.652-1.659,0.88
						c-0.544,0.229-1.057,0.343-1.538,0.343c-0.434,0-0.804-0.093-1.113-0.278c-0.309-0.186-0.566-0.427-0.769-0.723
						c-0.204-0.296-0.356-0.633-0.454-1.01c-0.1-0.377-0.148-0.763-0.148-1.159c0-0.259,0.018-0.516,0.056-0.769
						c0.037-0.253,0.099-0.491,0.186-0.714c-0.384,0.519-0.819,1.054-1.308,1.604c-0.488,0.55-1.013,1.051-1.575,1.501
						c-0.562,0.451-1.149,0.822-1.761,1.112c-0.612,0.29-1.233,0.436-1.863,0.436c-0.321,0-0.695-0.065-1.121-0.195
						c-0.427-0.129-0.832-0.343-1.215-0.639c-0.383-0.297-0.704-0.68-0.964-1.149c-0.26-0.47-0.389-1.044-0.389-1.724
						c0-0.506,0.077-1.112,0.231-1.816c0.154-0.705,0.389-1.437,0.704-2.197c0.315-0.76,0.717-1.511,1.205-2.252
						c0.488-0.742,1.065-1.406,1.733-1.993c0.667-0.587,1.427-1.063,2.28-1.427c0.852-0.365,1.804-0.547,2.854-0.547
						c0.543,0,1.019,0.068,1.427,0.204c0.408,0.136,0.754,0.285,1.038,0.445c0.321,0.198,0.605,0.415,0.854,0.649
						c0.209-0.111,0.426-0.216,0.648-0.315c0.186-0.087,0.38-0.164,0.584-0.232c0.204-0.068,0.38-0.102,0.528-0.102
						c0.47,0,0.853,0.13,1.149,0.39c0.296,0.259,0.444,0.544,0.444,0.853c0,0.086-0.006,0.155-0.019,0.204
						c-0.062,0.235-0.157,0.531-0.287,0.89c-0.13,0.358-0.275,0.757-0.435,1.195c-0.161,0.439-0.324,0.896-0.491,1.372
						c-0.167,0.476-0.318,0.942-0.454,1.399c-0.136,0.457-0.247,0.887-0.334,1.288c-0.086,0.402-0.13,0.745-0.13,1.029
						c0,0.371,0.062,0.677,0.186,0.918c0.124,0.241,0.334,0.361,0.631,0.361c0.185,0,0.404-0.059,0.658-0.176
						c0.253-0.117,0.527-0.275,0.824-0.473c0.297-0.197,0.603-0.423,0.918-0.677c0.314-0.253,0.621-0.51,0.917-0.769
						c0.692-0.618,1.428-1.322,2.206-2.113c0.197-0.16,0.39-0.241,0.575-0.241c0.247,0,0.454,0.12,0.621,0.361
						c0.166,0.241,0.25,0.51,0.25,0.806C39.021,156.171,38.902,156.461,38.668,156.696z M25.822,151.913
						c-0.581,0-1.144,0.148-1.688,0.445c-0.544,0.297-1.025,0.686-1.445,1.168c-0.421,0.482-0.754,1.022-1.001,1.622
						c-0.248,0.6-0.371,1.202-0.371,1.807c0,0.248,0.016,0.504,0.046,0.77c0.031,0.266,0.103,0.51,0.214,0.732
						c0.111,0.223,0.268,0.408,0.473,0.556c0.204,0.148,0.479,0.223,0.824,0.223c0.272,0,0.591-0.121,0.955-0.362
						c0.364-0.241,0.741-0.55,1.131-0.927c0.39-0.377,0.77-0.791,1.14-1.242c0.371-0.451,0.705-0.893,1.001-1.326
						c0.297-0.432,0.538-0.822,0.724-1.168c0.184-0.346,0.277-0.599,0.277-0.76c0-0.234-0.08-0.448-0.24-0.64
						c-0.161-0.191-0.359-0.355-0.594-0.491c-0.234-0.136-0.485-0.238-0.751-0.306C26.251,151.948,26.02,151.913,25.822,151.913z"/>
					<path class="st3" d="M56.334,153.322c0.173-0.099,0.333-0.179,0.481-0.241c0.148-0.062,0.29-0.093,0.427-0.093
						c0.271,0,0.476,0.102,0.611,0.306c0.136,0.204,0.204,0.454,0.204,0.751c0,0.321-0.083,0.649-0.25,0.982
						s-0.417,0.612-0.751,0.834c-1.322,0.989-2.503,1.891-3.541,2.706c-1.038,0.815-2.018,1.517-2.938,2.104
						c-0.921,0.587-1.82,1.041-2.697,1.362c-0.878,0.321-1.816,0.482-2.817,0.482c-0.939,0-1.666-0.173-2.179-0.519
						s-0.769-0.822-0.769-1.427c0-0.049,0-0.096,0-0.139c0-0.043,0.006-0.096,0.019-0.158c0.049-0.371,0.24-0.797,0.574-1.279
						c0.334-0.482,0.735-0.982,1.205-1.501c0.47-0.519,0.97-1.044,1.501-1.576c0.531-0.531,1.022-1.035,1.475-1.511
						c0.45-0.476,0.824-0.911,1.121-1.307c0.297-0.396,0.444-0.717,0.444-0.964c0-0.148-0.061-0.266-0.185-0.353
						c-0.124-0.086-0.328-0.129-0.612-0.129c-0.494,0-1.004,0.108-1.529,0.324c-0.525,0.216-1.044,0.507-1.557,0.871
						c-0.513,0.365-1.014,0.782-1.502,1.251c-0.488,0.47-0.945,0.958-1.371,1.464c-0.427,0.507-0.816,1.017-1.168,1.529
						c-0.353,0.513-0.652,0.985-0.899,1.418c-0.074,0.136-0.179,0.328-0.314,0.575c-0.137,0.247-0.285,0.525-0.445,0.834
						c-0.161,0.309-0.331,0.628-0.51,0.955c-0.18,0.328-0.343,0.637-0.491,0.927c-0.148,0.29-0.281,0.55-0.398,0.779
						c-0.118,0.229-0.201,0.386-0.25,0.473c-0.062,0.111-0.164,0.321-0.307,0.63c-0.142,0.309-0.306,0.67-0.491,1.085
						c-0.185,0.414-0.38,0.849-0.584,1.307c-0.203,0.457-0.395,0.89-0.574,1.297c-0.18,0.408-0.337,0.766-0.473,1.075
						c-0.136,0.309-0.223,0.519-0.26,0.63c-0.123,0.321-0.269,0.624-0.436,0.908c-0.167,0.284-0.358,0.535-0.574,0.751
						c-0.216,0.216-0.464,0.389-0.742,0.519c-0.277,0.129-0.59,0.194-0.936,0.194c-0.445,0-0.812-0.09-1.104-0.268
						c-0.289-0.179-0.435-0.523-0.435-1.029c0-0.248,0.037-0.5,0.111-0.76c0.074-0.259,0.167-0.516,0.278-0.769
						c0.111-0.253,0.226-0.501,0.343-0.742c0.118-0.241,0.226-0.473,0.324-0.695c0.668-1.236,1.348-2.475,2.039-3.717
						c0.692-1.242,1.356-2.471,1.993-3.689c0.637-1.217,1.227-2.413,1.771-3.587c0.543-1.174,0.994-2.299,1.353-3.374
						c0.099-0.222,0.235-0.538,0.408-0.945c0.173-0.408,0.371-0.809,0.593-1.205c0.223-0.395,0.473-0.738,0.751-1.028
						c0.278-0.291,0.577-0.436,0.899-0.436c0.494,0,0.853,0.096,1.075,0.288c0.222,0.192,0.333,0.473,0.333,0.843
						c0,0.074-0.012,0.192-0.037,0.352c-0.024,0.161-0.056,0.331-0.093,0.51c-0.037,0.18-0.077,0.35-0.12,0.51
						c-0.043,0.161-0.083,0.278-0.12,0.353c0.457-0.42,0.951-0.837,1.482-1.251c0.531-0.414,1.081-0.788,1.65-1.122
						c0.567-0.334,1.148-0.605,1.742-0.815c0.593-0.21,1.187-0.315,1.779-0.315c0.408,0,0.812,0.049,1.214,0.148
						c0.401,0.099,0.761,0.244,1.075,0.436c0.315,0.191,0.571,0.433,0.769,0.723c0.197,0.29,0.297,0.627,0.297,1.01
						c0,0.507-0.151,1.047-0.454,1.622c-0.304,0.575-0.684,1.152-1.141,1.733c-0.457,0.581-0.951,1.147-1.483,1.696
						c-0.531,0.55-1.029,1.051-1.492,1.502c-0.464,0.451-0.853,0.834-1.168,1.149c-0.315,0.315-0.479,0.528-0.491,0.64
						c0,0.148,0.056,0.269,0.167,0.361c0.111,0.093,0.296,0.139,0.556,0.139c0.21,0,0.52-0.099,0.927-0.297
						c0.408-0.197,0.979-0.541,1.715-1.029c0.735-0.488,1.668-1.143,2.799-1.965C53.284,155.605,54.678,154.571,56.334,153.322z"/>
					<path class="st3" d="M74.481,153.322c0.173-0.099,0.333-0.179,0.481-0.241c0.149-0.062,0.29-0.093,0.427-0.093
						c0.271,0,0.476,0.102,0.611,0.306c0.136,0.204,0.204,0.454,0.204,0.751c0,0.321-0.083,0.649-0.25,0.982
						s-0.417,0.612-0.751,0.834c-1.322,0.989-2.503,1.891-3.541,2.706c-1.038,0.815-2.018,1.517-2.938,2.104
						c-0.921,0.587-1.82,1.041-2.697,1.362c-0.878,0.321-1.816,0.482-2.817,0.482c-0.939,0-1.666-0.173-2.179-0.519
						s-0.769-0.822-0.769-1.427c0-0.049,0-0.096,0-0.139c0-0.043,0.006-0.096,0.019-0.158c0.049-0.371,0.24-0.797,0.574-1.279
						c0.334-0.482,0.735-0.982,1.205-1.501c0.47-0.519,0.97-1.044,1.501-1.576c0.531-0.531,1.022-1.035,1.475-1.511
						c0.45-0.476,0.824-0.911,1.121-1.307c0.297-0.396,0.444-0.717,0.444-0.964c0-0.148-0.062-0.266-0.185-0.353
						c-0.124-0.086-0.328-0.129-0.612-0.129c-0.494,0-1.004,0.108-1.529,0.324c-0.525,0.216-1.044,0.507-1.557,0.871
						c-0.513,0.365-1.014,0.782-1.502,1.251c-0.488,0.47-0.945,0.958-1.371,1.464c-0.427,0.507-0.816,1.017-1.168,1.529
						c-0.353,0.513-0.652,0.985-0.9,1.418c-0.074,0.136-0.179,0.328-0.314,0.575c-0.137,0.247-0.285,0.525-0.445,0.834
						c-0.161,0.309-0.331,0.628-0.51,0.955c-0.18,0.328-0.343,0.637-0.491,0.927c-0.148,0.29-0.281,0.55-0.398,0.779
						c-0.118,0.229-0.201,0.386-0.25,0.473c-0.062,0.111-0.164,0.321-0.307,0.63c-0.142,0.309-0.306,0.67-0.491,1.085
						c-0.185,0.414-0.38,0.849-0.584,1.307c-0.203,0.457-0.396,0.89-0.574,1.297c-0.18,0.408-0.337,0.766-0.473,1.075
						c-0.136,0.309-0.223,0.519-0.26,0.63c-0.123,0.321-0.269,0.624-0.436,0.908c-0.167,0.284-0.358,0.535-0.574,0.751
						c-0.216,0.216-0.464,0.389-0.742,0.519c-0.277,0.129-0.59,0.194-0.936,0.194c-0.445,0-0.812-0.09-1.103-0.268
						c-0.291-0.179-0.437-0.523-0.437-1.029c0-0.248,0.037-0.5,0.111-0.76c0.074-0.259,0.167-0.516,0.278-0.769
						c0.111-0.253,0.226-0.501,0.343-0.742c0.118-0.241,0.226-0.473,0.324-0.695c0.668-1.236,1.348-2.475,2.039-3.717
						c0.692-1.242,1.356-2.471,1.993-3.689c0.637-1.217,1.227-2.413,1.771-3.587c0.543-1.174,0.994-2.299,1.353-3.374
						c0.099-0.222,0.235-0.538,0.408-0.945c0.173-0.408,0.371-0.809,0.593-1.205c0.223-0.395,0.473-0.738,0.751-1.028
						c0.278-0.291,0.577-0.436,0.899-0.436c0.494,0,0.852,0.096,1.075,0.288c0.222,0.192,0.333,0.473,0.333,0.843
						c0,0.074-0.012,0.192-0.037,0.352c-0.024,0.161-0.056,0.331-0.093,0.51c-0.037,0.18-0.077,0.35-0.12,0.51
						c-0.043,0.161-0.083,0.278-0.12,0.353c0.457-0.42,0.951-0.837,1.482-1.251c0.531-0.414,1.081-0.788,1.65-1.122
						c0.567-0.334,1.148-0.605,1.742-0.815c0.593-0.21,1.187-0.315,1.779-0.315c0.408,0,0.812,0.049,1.214,0.148
						c0.401,0.099,0.761,0.244,1.075,0.436c0.315,0.191,0.571,0.433,0.77,0.723c0.197,0.29,0.297,0.627,0.297,1.01
						c0,0.507-0.151,1.047-0.454,1.622c-0.304,0.575-0.684,1.152-1.141,1.733c-0.457,0.581-0.951,1.147-1.482,1.696
						c-0.531,0.55-1.029,1.051-1.492,1.502c-0.464,0.451-0.852,0.834-1.168,1.149c-0.315,0.315-0.479,0.528-0.491,0.64
						c0,0.148,0.056,0.269,0.167,0.361c0.111,0.093,0.296,0.139,0.556,0.139c0.21,0,0.519-0.099,0.927-0.297
						c0.408-0.197,0.979-0.541,1.715-1.029c0.735-0.488,1.668-1.143,2.799-1.965C71.432,155.605,72.825,154.571,74.481,153.322z"/>
					<path class="st3" d="M92.777,157.604c-0.544,0.618-1.178,1.22-1.9,1.807c-0.723,0.587-1.468,1.109-2.233,1.566
						c-0.767,0.458-1.521,0.825-2.262,1.103c-0.741,0.278-1.409,0.417-2.002,0.417c-0.594,0-1.075-0.167-1.446-0.501
						c-0.37-0.333-0.556-0.902-0.556-1.706c0-0.568,0.099-1.23,0.297-1.983c-0.322,0.482-0.724,0.971-1.205,1.464
						c-0.482,0.495-1.032,0.946-1.65,1.354c-0.618,0.408-1.31,0.738-2.076,0.992c-0.766,0.253-1.601,0.38-2.502,0.38
						c-0.408,0-0.801-0.044-1.177-0.13c-0.378-0.086-0.708-0.235-0.992-0.445c-0.284-0.21-0.513-0.491-0.686-0.843
						c-0.174-0.352-0.26-0.794-0.26-1.325c0-0.012,0.024-0.201,0.074-0.565c0.049-0.365,0.207-0.939,0.473-1.724
						c0.266-0.785,0.677-1.801,1.232-3.049c0.557-1.248,1.341-2.762,2.354-4.542c0.26-0.469,0.559-0.806,0.898-1.01
						c0.34-0.204,0.708-0.306,1.104-0.306c0.173,0,0.353,0.021,0.537,0.065c0.186,0.043,0.358,0.111,0.52,0.204
						c0.16,0.093,0.29,0.21,0.389,0.352c0.1,0.143,0.148,0.306,0.148,0.491c0,0.124-0.019,0.241-0.056,0.353
						c-0.062,0.21-0.194,0.485-0.398,0.825c-0.204,0.34-0.441,0.73-0.714,1.168c-0.271,0.438-0.559,0.912-0.861,1.418
						c-0.303,0.507-0.584,1.032-0.844,1.576c-0.26,0.544-0.481,1.097-0.667,1.659c-0.186,0.562-0.291,1.109-0.315,1.64
						c0,0.223,0.062,0.427,0.186,0.612c0.123,0.186,0.327,0.278,0.611,0.278c0.804,0,1.569-0.223,2.299-0.667
						c0.729-0.445,1.402-0.998,2.021-1.659c0.618-0.661,1.177-1.372,1.678-2.132c0.5-0.76,0.918-1.455,1.251-2.085
						c0.234-0.42,0.441-0.872,0.621-1.354c0.179-0.482,0.374-0.927,0.584-1.335c0.21-0.408,0.451-0.747,0.723-1.02
						c0.271-0.271,0.612-0.408,1.019-0.408c0.445,0,0.797,0.142,1.057,0.426c0.26,0.284,0.39,0.624,0.39,1.02
						c0,0.222-0.084,0.528-0.25,0.918c-0.167,0.389-0.378,0.834-0.631,1.334c-0.253,0.501-0.528,1.035-0.824,1.604
						c-0.297,0.569-0.572,1.146-0.825,1.733c-0.254,0.587-0.464,1.162-0.631,1.724c-0.166,0.562-0.25,1.085-0.25,1.566
						c0,0.445,0.271,0.667,0.815,0.667c0.383,0,0.859-0.111,1.428-0.333c0.568-0.223,1.165-0.535,1.789-0.936
						c0.624-0.401,1.248-0.874,1.872-1.418c0.624-0.543,1.177-1.13,1.659-1.761L92.777,157.604z"/>
					<path class="st3" d="M100.692,150.264c0,0.383-0.044,0.807-0.13,1.27c-0.087,0.463-0.229,0.899-0.427,1.307
						c-0.197,0.408-0.451,0.748-0.76,1.02c-0.309,0.272-0.692,0.408-1.149,0.408c-0.247,0-0.404-0.037-0.473-0.111
						c-0.068-0.074-0.101-0.204-0.101-0.39c0-0.111,0.003-0.275,0.009-0.491c0.006-0.216,0.01-0.423,0.01-0.621
						c0-0.223-0.031-0.411-0.093-0.565c-0.062-0.154-0.217-0.232-0.464-0.232c-0.284,0-0.603,0.108-0.954,0.325
						c-0.352,0.216-0.705,0.497-1.057,0.843c-0.353,0.346-0.695,0.738-1.029,1.177c-0.333,0.438-0.633,0.883-0.898,1.334
						c-0.267,0.451-0.477,0.887-0.631,1.307c-0.154,0.42-0.231,0.779-0.231,1.075c0,0.433,0.151,0.772,0.454,1.02
						c0.303,0.248,0.714,0.371,1.232,0.371c0.557,0,1.149-0.092,1.78-0.278c0.63-0.186,1.257-0.42,1.881-0.705
						c0.624-0.284,1.227-0.593,1.808-0.927c0.581-0.333,1.109-0.651,1.585-0.955c0.476-0.303,0.874-0.562,1.195-0.778
						c0.321-0.216,0.531-0.349,0.631-0.399c0.197-0.099,0.383-0.148,0.556-0.148c0.148,0,0.274,0.034,0.38,0.102
						c0.104,0.068,0.188,0.148,0.25,0.241c0.062,0.093,0.105,0.192,0.13,0.296c0.024,0.105,0.037,0.195,0.037,0.269
						c0,0.111-0.013,0.244-0.037,0.398c-0.025,0.155-0.117,0.331-0.277,0.528c-0.062,0.074-0.263,0.263-0.603,0.565
						c-0.341,0.303-0.779,0.658-1.316,1.066c-0.538,0.408-1.155,0.843-1.854,1.307c-0.698,0.463-1.446,0.887-2.243,1.27
						c-0.797,0.383-1.622,0.701-2.475,0.955c-0.853,0.253-1.693,0.38-2.521,0.38c-0.63,0-1.189-0.099-1.677-0.296
						c-0.488-0.198-0.899-0.466-1.233-0.807c-0.333-0.34-0.587-0.738-0.76-1.195c-0.173-0.457-0.26-0.939-0.26-1.446
						c0-0.556,0.13-1.195,0.39-1.919c0.26-0.723,0.618-1.461,1.075-2.215c0.457-0.754,0.994-1.495,1.612-2.225
						c0.618-0.729,1.288-1.378,2.012-1.946c0.723-0.568,1.477-1.026,2.262-1.372c0.784-0.346,1.578-0.519,2.382-0.519
						c0.271,0,0.528,0.031,0.769,0.092c0.241,0.062,0.451,0.158,0.631,0.288c0.179,0.13,0.321,0.306,0.426,0.528
						C100.64,149.689,100.692,149.955,100.692,150.264z"/>
					<path class="st3" d="M112.648,150.264c0,0.383-0.044,0.807-0.13,1.27c-0.087,0.463-0.229,0.899-0.427,1.307
						c-0.197,0.408-0.451,0.748-0.76,1.02c-0.309,0.272-0.692,0.408-1.149,0.408c-0.247,0-0.404-0.037-0.473-0.111
						c-0.068-0.074-0.102-0.204-0.102-0.39c0-0.111,0.003-0.275,0.009-0.491c0.006-0.216,0.01-0.423,0.01-0.621
						c0-0.223-0.031-0.411-0.093-0.565c-0.062-0.154-0.217-0.232-0.464-0.232c-0.284,0-0.603,0.108-0.954,0.325
						c-0.353,0.216-0.705,0.497-1.057,0.843c-0.353,0.346-0.695,0.738-1.029,1.177c-0.333,0.438-0.633,0.883-0.898,1.334
						c-0.267,0.451-0.477,0.887-0.631,1.307c-0.154,0.42-0.231,0.779-0.231,1.075c0,0.433,0.151,0.772,0.454,1.02
						c0.303,0.248,0.714,0.371,1.232,0.371c0.557,0,1.149-0.092,1.78-0.278c0.63-0.186,1.257-0.42,1.881-0.705
						c0.624-0.284,1.227-0.593,1.808-0.927c0.581-0.333,1.109-0.651,1.585-0.955c0.476-0.303,0.874-0.562,1.195-0.778
						c0.321-0.216,0.531-0.349,0.631-0.399c0.197-0.099,0.383-0.148,0.556-0.148c0.149,0,0.275,0.034,0.38,0.102
						c0.104,0.068,0.188,0.148,0.25,0.241c0.062,0.093,0.105,0.192,0.13,0.296c0.024,0.105,0.037,0.195,0.037,0.269
						c0,0.111-0.013,0.244-0.037,0.398c-0.024,0.155-0.117,0.331-0.277,0.528c-0.062,0.074-0.263,0.263-0.603,0.565
						c-0.341,0.303-0.779,0.658-1.316,1.066c-0.538,0.408-1.155,0.843-1.853,1.307c-0.698,0.463-1.446,0.887-2.243,1.27
						c-0.797,0.383-1.622,0.701-2.475,0.955c-0.853,0.253-1.693,0.38-2.521,0.38c-0.63,0-1.189-0.099-1.677-0.296
						c-0.488-0.198-0.899-0.466-1.233-0.807c-0.333-0.34-0.587-0.738-0.76-1.195c-0.173-0.457-0.26-0.939-0.26-1.446
						c0-0.556,0.13-1.195,0.39-1.919c0.26-0.723,0.618-1.461,1.075-2.215c0.457-0.754,0.994-1.495,1.612-2.225
						c0.618-0.729,1.288-1.378,2.012-1.946c0.723-0.568,1.477-1.026,2.262-1.372c0.784-0.346,1.578-0.519,2.382-0.519
						c0.271,0,0.528,0.031,0.768,0.092c0.241,0.062,0.451,0.158,0.631,0.288c0.179,0.13,0.321,0.306,0.426,0.528
						C112.596,149.689,112.648,149.955,112.648,150.264z"/>
					<path class="st3" d="M116.578,150.171c0.21-0.346,0.45-0.593,0.723-0.741c0.271-0.148,0.55-0.223,0.834-0.223
						c0.47,0,0.874,0.152,1.214,0.454c0.34,0.303,0.51,0.689,0.51,1.159c-0.012,0.111-0.027,0.223-0.046,0.334
						c-0.019,0.111-0.059,0.222-0.12,0.333c-0.174,0.321-0.315,0.593-0.427,0.816c-0.111,0.223-0.213,0.43-0.306,0.621
						c-0.093,0.192-0.183,0.38-0.269,0.565c-0.087,0.186-0.192,0.408-0.315,0.667c-0.148,0.309-0.315,0.646-0.501,1.01
						c-0.185,0.364-0.361,0.738-0.528,1.121c-0.166,0.383-0.309,0.76-0.426,1.131c-0.118,0.371-0.176,0.711-0.176,1.02
						c0,0.333,0.083,0.553,0.25,0.658c0.167,0.105,0.404,0.158,0.714,0.158c0.346,0,0.707-0.074,1.084-0.223
						c0.377-0.148,0.757-0.34,1.14-0.575c0.383-0.234,0.761-0.503,1.131-0.806c0.371-0.303,0.72-0.609,1.048-0.918
						c0.327-0.309,0.63-0.605,0.908-0.89c0.278-0.284,0.51-0.538,0.695-0.76c0.247-0.235,0.494-0.353,0.741-0.353
						c0.223,0,0.404,0.099,0.547,0.297c0.142,0.198,0.213,0.451,0.213,0.76c0,0.285-0.071,0.587-0.213,0.909
						c-0.143,0.321-0.374,0.624-0.695,0.908c-0.63,0.643-1.272,1.257-1.928,1.844c-0.655,0.587-1.325,1.106-2.012,1.557
						c-0.686,0.451-1.374,0.812-2.066,1.085c-0.692,0.271-1.391,0.408-2.095,0.408c-1.001,0-1.789-0.256-2.363-0.769
						c-0.575-0.513-0.862-1.313-0.862-2.401c0-0.568,0.08-1.124,0.241-1.668c0.16-0.544,0.353-1.072,0.574-1.585
						c0.223-0.513,0.457-1.007,0.705-1.483c0.247-0.476,0.457-0.93,0.63-1.363c0.062-0.16,0.17-0.408,0.324-0.741
						c0.154-0.334,0.318-0.673,0.491-1.02C116.146,151.061,116.355,150.628,116.578,150.171z M118.617,146
						c0-0.284,0.052-0.578,0.157-0.881c0.104-0.302,0.263-0.577,0.473-0.825c0.21-0.247,0.473-0.451,0.788-0.612
						c0.314-0.16,0.688-0.241,1.121-0.241c0.717,0,1.217,0.139,1.502,0.417c0.284,0.278,0.426,0.628,0.426,1.047
						c0,0.235-0.046,0.494-0.139,0.778c-0.093,0.285-0.232,0.547-0.417,0.788c-0.186,0.241-0.427,0.442-0.724,0.603
						c-0.296,0.161-0.648,0.241-1.056,0.241c-0.767,0-1.305-0.121-1.613-0.361C118.827,146.714,118.654,146.396,118.617,146z"/>
					<path class="st3" d="M126.013,150.783c0.247-0.531,0.557-0.927,0.927-1.186c0.371-0.26,0.735-0.39,1.094-0.39
						c0.297,0,0.562,0.108,0.797,0.325c0.235,0.216,0.353,0.535,0.353,0.955c0,0.161-0.019,0.333-0.056,0.519
						c-0.037,0.185-0.105,0.383-0.204,0.593c0.272-0.346,0.661-0.701,1.168-1.066c0.507-0.364,1.066-0.692,1.678-0.982
						c0.611-0.29,1.242-0.528,1.891-0.714c0.648-0.186,1.264-0.278,1.845-0.278c0.654,0,1.201,0.157,1.641,0.473
						c0.438,0.315,0.657,0.85,0.657,1.604c0,0.445-0.067,0.908-0.203,1.39c-0.137,0.482-0.312,0.964-0.528,1.446
						c-0.217,0.482-0.458,0.955-0.724,1.418c-0.266,0.463-0.528,0.899-0.787,1.307c-0.26,0.408-0.498,0.782-0.714,1.121
						c-0.217,0.34-0.387,0.621-0.51,0.844c-0.161,0.198-0.241,0.426-0.241,0.686c0,0.099,0.031,0.186,0.093,0.26
						c0.062,0.074,0.16,0.111,0.297,0.111c0.086,0,0.186-0.009,0.296-0.028c0.111-0.019,0.247-0.084,0.408-0.195
						c0.667-0.247,1.35-0.556,2.049-0.927c0.697-0.371,1.368-0.763,2.011-1.177c0.643-0.414,1.232-0.828,1.771-1.242
						c0.537-0.414,0.985-0.788,1.344-1.122c0.099-0.086,0.197-0.148,0.297-0.186c0.099-0.037,0.191-0.056,0.277-0.056
						c0.21,0,0.374,0.08,0.491,0.241c0.118,0.161,0.177,0.365,0.177,0.612c0,0.383-0.121,0.81-0.361,1.279
						c-0.241,0.47-0.621,0.908-1.141,1.316c-0.704,0.507-1.35,0.97-1.937,1.39c-0.588,0.42-1.187,0.812-1.799,1.177
						c-0.611,0.365-1.267,0.705-1.965,1.02c-0.698,0.316-1.517,0.609-2.456,0.881c-0.321,0.099-0.614,0.173-0.88,0.222
						c-0.267,0.049-0.51,0.074-0.732,0.074c-0.655,0-1.134-0.183-1.437-0.547c-0.303-0.364-0.454-0.874-0.454-1.529
						c0-0.086,0.003-0.169,0.009-0.25c0.006-0.081,0.016-0.17,0.028-0.269c0.024-0.383,0.126-0.803,0.306-1.26
						c0.179-0.457,0.396-0.927,0.648-1.409c0.253-0.482,0.522-0.961,0.807-1.437c0.284-0.476,0.547-0.927,0.788-1.353
						c0.24-0.426,0.441-0.806,0.603-1.14c0.16-0.333,0.24-0.605,0.24-0.815c0-0.186-0.053-0.343-0.157-0.473
						c-0.105-0.13-0.263-0.195-0.473-0.195c-0.791,0-1.542,0.235-2.252,0.705c-0.711,0.47-1.375,1.047-1.993,1.733
						c-0.618,0.686-1.187,1.412-1.705,2.178c-0.52,0.767-0.977,1.452-1.372,2.058c-0.247,0.408-0.473,0.843-0.677,1.307
						c-0.203,0.464-0.417,0.896-0.639,1.298c-0.223,0.402-0.473,0.735-0.751,1.001c-0.278,0.266-0.628,0.398-1.048,0.398
						c-0.433,0-0.772-0.136-1.02-0.408c-0.247-0.272-0.37-0.605-0.37-1.001c0-0.21,0.086-0.55,0.259-1.02
						c0.173-0.47,0.396-1.013,0.668-1.631c0.271-0.618,0.577-1.282,0.917-1.993c0.34-0.71,0.68-1.415,1.02-2.113
						c0.34-0.698,0.664-1.356,0.974-1.974C125.562,151.741,125.815,151.215,126.013,150.783z"/>
					<path class="st3" d="M148.739,148.559c0.47,0,0.974,0.062,1.511,0.185c0.538,0.124,1.035,0.334,1.492,0.63
						c0.457,0.296,0.837,0.689,1.14,1.177c0.303,0.488,0.455,1.091,0.455,1.807c0,0.371-0.05,0.794-0.148,1.27
						c-0.1,0.475-0.248,0.973-0.445,1.492c0.123,0.148,0.266,0.253,0.427,0.315c0.16,0.062,0.333,0.093,0.518,0.093
						c0.26,0,0.547-0.074,0.862-0.223c0.316-0.148,0.64-0.339,0.973-0.575c0.334-0.234,0.668-0.501,1.001-0.797
						c0.334-0.296,0.649-0.593,0.945-0.89c0.297-0.297,0.565-0.578,0.807-0.844c0.241-0.265,0.441-0.491,0.602-0.676
						c0.086-0.087,0.192-0.13,0.316-0.13c0.173,0,0.327,0.09,0.463,0.269c0.136,0.179,0.204,0.429,0.204,0.751
						s-0.096,0.692-0.287,1.112c-0.191,0.42-0.547,0.859-1.066,1.316c-0.296,0.322-0.636,0.692-1.02,1.112
						c-0.383,0.42-0.791,0.816-1.223,1.187c-0.433,0.371-0.884,0.686-1.354,0.945c-0.47,0.259-0.939,0.389-1.409,0.389
						c-0.321,0-0.633-0.049-0.936-0.148c-0.303-0.099-0.609-0.259-0.918-0.482c-0.444,0.692-0.951,1.323-1.52,1.891
						c-0.568,0.568-1.202,1.056-1.9,1.464c-0.698,0.408-1.452,0.726-2.262,0.955c-0.81,0.229-1.671,0.343-2.586,0.343
						c-0.346,0-0.747-0.068-1.204-0.204c-0.458-0.136-0.894-0.361-1.308-0.676c-0.414-0.315-0.763-0.726-1.047-1.233
						c-0.284-0.506-0.427-1.124-0.427-1.854c0-0.494,0.08-1.087,0.241-1.78c0.16-0.692,0.404-1.405,0.732-2.141
						c0.327-0.735,0.741-1.464,1.242-2.188c0.5-0.723,1.097-1.372,1.788-1.946c0.692-0.575,1.483-1.038,2.373-1.39
						C146.663,148.734,147.651,148.559,148.739,148.559z M147.775,151.821c-0.581,0-1.14,0.146-1.678,0.436
						c-0.537,0.29-1.014,0.674-1.427,1.149c-0.415,0.476-0.745,1.014-0.992,1.613c-0.247,0.6-0.371,1.214-0.371,1.844
						c0,0.235,0.019,0.491,0.056,0.77c0.037,0.278,0.114,0.538,0.232,0.778c0.117,0.241,0.287,0.442,0.51,0.603
						c0.222,0.161,0.519,0.241,0.89,0.241c0.568,0,1.121-0.151,1.659-0.455c0.537-0.302,1.016-0.698,1.437-1.186
						c0.42-0.488,0.753-1.041,1.001-1.659c0.247-0.618,0.37-1.242,0.37-1.872c0-0.247-0.016-0.504-0.046-0.77
						c-0.031-0.266-0.105-0.51-0.223-0.732c-0.117-0.223-0.287-0.405-0.51-0.547C148.461,151.892,148.158,151.821,147.775,151.821z"
						/>
				</g>
			</g>
		</g>
		<path class="st4" d="M143.298,3.02c0,0-29.481,0-59.275,0v8.474h70.19C154.214,3.448,143.298,3.02,143.298,3.02z"/>
		<path class="st4" d="M84.024,97.736l0.157,0.005c0.555,0.017,1.296,0.031,2.195,0.031c7.684,0,33.933-1.177,49.081-16.325
			c4.461-4.461,7.92-11.055,10.592-18.505l0.001-0.002c3.058-8.526,5.081-18.171,6.37-27.056c0.008-0.054,0.016-0.108,0.024-0.163
			c0.277-1.924,0.521-3.81,0.733-5.641c0.011-0.09,0.02-0.179,0.031-0.269c0.091-0.793,0.176-1.575,0.255-2.345
			c0.015-0.144,0.03-0.288,0.044-0.431c0.169-1.678,0.313-3.295,0.431-4.835c0.015-0.194,0.028-0.383,0.043-0.575
			c0.038-0.515,0.074-1.02,0.107-1.516c0.006-0.083,0.011-0.167,0.017-0.249c0.011-0.168,0.022-0.336,0.032-0.502
			c0.043-0.696,0.083-1.379,0.116-2.032H84.024V97.736z"/>
	</g>
	<polygon class="st1" points="55.776,181.032 58.686,186.928 65.193,187.874 60.484,192.464 61.596,198.944 55.776,195.884 
		49.956,198.944 51.067,192.464 46.359,187.874 52.866,186.928 	"/>
	<polygon class="st5" points="85.539,181.032 88.449,186.928 94.956,187.874 90.247,192.464 91.359,198.944 85.539,195.884 
		79.719,198.944 80.83,192.464 76.122,187.874 82.629,186.928 	"/>
	<polygon class="st0" points="116.219,181.032 119.129,186.928 125.636,187.874 120.927,192.464 122.039,198.944 116.219,195.884 
		110.399,198.944 111.51,192.464 106.802,187.874 113.309,186.928 	"/>
</g>
</svg>