<!-- Generator: Adobe Illustrator 19.2.1, SVG Export Plug-In  -->
<svg version="1.1"
	 xmlns="http://www.w3.org/2000/svg" xmlns:xlink="http://www.w3.org/1999/xlink" xmlns:a="http://ns.adobe.com/AdobeSVGViewerExtensions/3.0/"
	 x="0px" y="0px" width="93.941px" height="21.232px" viewBox="0 0 93.941 21.232"
	 style="enable-background:new 0 0 93.941 21.232;" xml:space="preserve">
<style type="text/css">
	.st0{fill:#FFF4EE;}
</style>
<defs>
</defs>
<g>
	<path class="st0" d="M16.349,0.428v20.376h-4.632L11.712,7.048L9.867,20.804H6.582L4.638,7.362L4.632,20.804H0V0.428h6.857
		C7.06,1.653,7.269,3.097,7.485,4.76l0.752,5.183l1.218-9.515H16.349z"/>
	<path class="st0" d="M30.584,12.359c0,2.047-0.049,3.497-0.145,4.349c-0.097,0.852-0.398,1.63-0.906,2.334
		c-0.508,0.705-1.193,1.246-2.058,1.624c-0.864,0.378-1.871,0.566-3.021,0.566c-1.091,0-2.07-0.178-2.939-0.535
		c-0.868-0.357-1.567-0.892-2.096-1.605c-0.528-0.713-0.843-1.489-0.944-2.328c-0.101-0.839-0.151-2.307-0.151-4.405V8.873
		c0-2.047,0.048-3.497,0.145-4.348c0.097-0.852,0.398-1.63,0.906-2.334c0.508-0.705,1.193-1.246,2.058-1.624
		C22.298,0.189,23.305,0,24.455,0c1.09,0,2.07,0.178,2.939,0.535c0.869,0.357,1.567,0.892,2.096,1.605
		c0.529,0.713,0.843,1.49,0.944,2.329c0.101,0.839,0.151,2.308,0.151,4.405V12.359z M25.285,5.664c0-0.948-0.053-1.555-0.157-1.819
		c-0.105-0.264-0.321-0.396-0.649-0.396c-0.277,0-0.489,0.107-0.635,0.321c-0.147,0.214-0.221,0.846-0.221,1.895v9.515
		c0,1.183,0.048,1.913,0.145,2.19c0.096,0.277,0.321,0.416,0.673,0.416c0.361,0,0.591-0.159,0.692-0.479
		c0.101-0.319,0.151-1.078,0.151-2.278V5.664z"/>
	<path class="st0" d="M32.56,0.428h3.75c2.5,0,4.193,0.097,5.079,0.29s1.606,0.686,2.164,1.479c0.558,0.793,0.837,2.058,0.837,3.795
		c0,1.586-0.197,2.651-0.591,3.197c-0.395,0.545-1.17,0.873-2.329,0.981c1.049,0.26,1.754,0.609,2.115,1.045
		c0.36,0.436,0.585,0.837,0.673,1.202c0.088,0.365,0.132,1.37,0.132,3.015v5.374h-4.921v-6.771c0-1.091-0.086-1.766-0.258-2.026
		c-0.172-0.26-0.623-0.39-1.353-0.39v9.187H32.56V0.428z M37.858,3.914v4.531c0.596,0,1.013-0.082,1.253-0.246
		c0.239-0.163,0.358-0.694,0.358-1.592v-1.12c0-0.646-0.115-1.07-0.346-1.272C38.892,4.015,38.471,3.914,37.858,3.914z"/>
	<path class="st0" d="M58.272,0.428v20.376h-4.644l-2.756-9.263v9.263h-4.43V0.428h4.43l2.97,9.175V0.428H58.272z"/>
	<path class="st0" d="M65.698,0.428v20.376h-5.299V0.428H65.698z"/>
	<path class="st0" d="M79.656,0.428v20.376h-4.644l-2.756-9.263v9.263h-4.43V0.428h4.43l2.97,9.175V0.428H79.656z"/>
	<path class="st0" d="M93.941,7.929h-5.299v-1.85c0-1.166-0.05-1.896-0.151-2.19c-0.101-0.293-0.34-0.44-0.718-0.44
		c-0.327,0-0.549,0.126-0.667,0.377c-0.117,0.252-0.176,0.898-0.176,1.939v9.779c0,0.915,0.059,1.517,0.176,1.806
		c0.118,0.289,0.353,0.434,0.705,0.434c0.386,0,0.648-0.164,0.787-0.491c0.138-0.328,0.207-0.965,0.207-1.913v-2.417h-1.07V9.867
		h6.205v10.937h-3.33l-0.49-1.46c-0.361,0.629-0.817,1.101-1.367,1.416c-0.55,0.314-1.199,0.472-1.946,0.472
		c-0.89,0-1.724-0.216-2.501-0.648c-0.777-0.432-1.366-0.967-1.77-1.604c-0.403-0.638-0.655-1.307-0.756-2.008
		c-0.101-0.7-0.151-1.752-0.151-3.153V7.765c0-1.946,0.105-3.36,0.314-4.241c0.21-0.881,0.812-1.688,1.806-2.423
		C84.747,0.367,86.033,0,87.61,0c1.552,0,2.84,0.319,3.864,0.956c1.023,0.638,1.69,1.395,2.001,2.272
		c0.31,0.877,0.466,2.15,0.466,3.82V7.929z"/>
</g>
</svg>